<?xml version="1.0" encoding="utf-8"?>
<!-- Generator: Adobe Illustrator 26.2.1, SVG Export Plug-In . SVG Version: 6.00 Build 0)  -->
<svg version="1.1" xmlns="http://www.w3.org/2000/svg" xmlns:xlink="http://www.w3.org/1999/xlink" x="0px" y="0px"
	 viewBox="0 0 75.2 86" style="enable-background:new 0 0 75.2 86;" xml:space="preserve">
<style type="text/css">
	.st0{display:none;}
	.st1{display:inline;fill:none;stroke:#AABEC8;stroke-width:2;stroke-linecap:round;stroke-miterlimit:10;}
	.st2{opacity:0.7;}
	.st3{fill:none;stroke:#B4B5B8;stroke-width:2;stroke-linecap:round;stroke-miterlimit:10;}
	.st4{opacity:0.8;fill:#4986AD;}
	.st5{opacity:0.8;fill:#F78D3A;}
	.st6{opacity:0.8;fill:#4B87A0;}
	.st7{opacity:0.8;fill:#002856;}
	.st8{opacity:0.8;fill:#3DB54A;}
	.st9{opacity:0.8;fill:#8D2C8F;}
	.st10{opacity:0.8;fill:#84152C;}
</style>
<g id="Layer_3" class="st0">
	<line class="st1" x1="72.2" y1="23" x2="3" y2="23"/>
	<line class="st1" x1="3" y1="23" x2="37.6" y2="83"/>
	<line class="st1" x1="72.2" y1="23" x2="37.6" y2="83"/>
	<line class="st1" x1="72.2" y1="63" x2="37.6" y2="3"/>
	<line class="st1" x1="37.6" y1="3" x2="2.9" y2="63"/>
	<line class="st1" x1="72.2" y1="63" x2="2.9" y2="63"/>
</g>
<g id="Layer_2">
	<g class="st2">
		<line class="st3" x1="37.6" y1="43" x2="37.6" y2="3"/>
		<line class="st3" x1="72.2" y1="63" x2="72.2" y2="23"/>
		<line class="st3" x1="3" y1="63" x2="3" y2="23"/>
		<line class="st3" x1="37.6" y1="83" x2="37.6" y2="43"/>
	</g>
	<g class="st2">
		<line class="st3" x1="72.2" y1="23" x2="37.6" y2="3"/>
		<line class="st3" x1="3" y1="23" x2="37.6" y2="3"/>
		<line class="st3" x1="3" y1="23" x2="37.6" y2="43"/>
		<line class="st3" x1="37.6" y1="43" x2="72.2" y2="23"/>
	</g>
	<g class="st2">
		<line class="st3" x1="72.4" y1="62.9" x2="72.3" y2="22.9"/>
		<line class="st3" x1="37.7" y1="3" x2="72.3" y2="22.9"/>
		<line class="st3" x1="37.7" y1="3" x2="37.7" y2="43"/>
		<line class="st3" x1="37.7" y1="43" x2="72.4" y2="62.9"/>
	</g>
	<g class="st2">
		<line class="st3" x1="3" y1="63" x2="37.7" y2="43"/>
		<line class="st3" x1="72.2" y1="63" x2="37.6" y2="43.1"/>
		<line class="st3" x1="72.2" y1="63" x2="37.6" y2="83"/>
		<line class="st3" x1="37.6" y1="83" x2="3" y2="63"/>
	</g>
	<circle class="st4" cx="3" cy="23" r="3"/>
	<circle class="st5" cx="37.6" cy="3" r="3"/>
	<circle class="st6" cx="72.2" cy="23" r="3"/>
	<circle class="st7" cx="37.3" cy="43" r="3"/>
	<circle class="st8" cx="3" cy="63" r="3"/>
	<circle class="st9" cx="37.6" cy="83" r="3"/>
	<circle class="st10" cx="72.2" cy="63" r="3"/>
</g>
</svg>
