<?xml version="1.0" encoding="UTF-8"?><svg id="a" xmlns="http://www.w3.org/2000/svg" viewBox="0 0 200 200"><defs><style>.b{fill:#3db54a;font-size:24px;}.b,.c{letter-spacing:.2em;}.d,.e{fill:#ccc;}.f{letter-spacing:.16em;}.g{fill:none;stroke:#efefef;stroke-miterlimit:10;stroke-width:1.67px;}.h{font-family:FuturaPT-Heavy, Futura PT;}.e{font-size:12px;}</style></defs><text class="h" transform="translate(67.97 132.02)"><tspan class="b"><tspan x="0" y="0">FIVE</tspan></tspan><tspan class="e"><tspan class="c" x="10.06" y="18">WH</tspan><tspan class="f" x="35.52" y="18">Y</tspan><tspan class="c" x="45" y="18">S</tspan></tspan></text><rect class="g" width="200" height="200"/><path class="d" d="M114.89,56.53h-16.5l-1.32,6.52c1.25-.22,2.79-.37,4.04-.37,5.5,0,9.75,1.98,12.46,4.77,2.2,2.2,4.47,6.01,4.47,11.8,0,6.31-2.72,10.34-4.98,12.61-4.48,4.4-9.83,5.13-14.81,5.13-4.62,0-10.12-.59-16.28-5.35l2.57-10.48c1.32,1.47,3.15,3.08,4.69,4.03,2.05,1.32,4.47,2.13,7.41,2.13,2.56,0,5.21-.59,6.96-1.98,1.54-1.17,2.86-3.3,2.86-6.16s-1.32-4.69-2.49-5.72c-.59-.51-3.01-2.57-8.14-2.57-4.11,0-7.55,1.25-9.98,2.57l4.98-26.47h24.05v9.53Z"/></svg>