<?xml version="1.0" encoding="UTF-8"?><svg id="a" xmlns="http://www.w3.org/2000/svg" viewBox="0 0 200 200"><defs><style>.b{fill:none;stroke:#efefef;stroke-miterlimit:10;stroke-width:1.5px;}.c{fill:#bbb;}.d{letter-spacing:.18em;}.e{letter-spacing:.08em;}.f{letter-spacing:.06em;}.g{letter-spacing:.05em;}.h{letter-spacing:.2em;}.i{letter-spacing:.2em;}.j{letter-spacing:.21em;}.k{fill:#3db54a;font-size:24px;}.l{font-family:FuturaPT-Heavy, Futura PT;}.m{fill:#ccc;font-size:12px;}.n{letter-spacing:.15em;}</style></defs><text class="l" transform="translate(28.24 132.02)"><tspan class="k"><tspan class="e" x="0" y="0">EN</tspan><tspan class="g" x="34.75" y="0">G</tspan><tspan class="f" x="54.46" y="0">A</tspan><tspan class="e" x="72.02" y="0">GE IN</tspan></tspan><tspan class="m"><tspan class="i" x="9.68" y="18">AN INTE</tspan><tspan class="j" x="71.72" y="18">R</tspan><tspan class="d" x="81.54" y="18">A</tspan><tspan class="i" x="91.82" y="18">CTIVE</tspan></tspan><tspan class="m"><tspan class="h" x="26.75" y="32.4">CASE STU</tspan><tspan class="n" x="97.39" y="32.4">D</tspan><tspan class="h" x="107.39" y="32.4">Y</tspan></tspan></text><rect class="b" x="10.72" y="10" width="180" height="180"/><path class="c" d="M117.39,83.68c2.29,0,4.15-1.87,4.15-4.17l.02-20.83c0-2.29-1.87-4.17-4.17-4.17h-33.33c-2.29,0-4.17,1.88-4.17,4.17v20.83c0,2.29,1.88,4.17,4.17,4.17h-6.25c-1.15,0-2.08,.94-2.08,2.08s.94,2.08,2.08,2.08h45.83c1.15,0,2.08-.94,2.08-2.08s-.94-2.08-2.08-2.08h-6.25Zm-31.25-25h29.17c1.15,0,2.08,.94,2.08,2.08v16.67c0,1.15-.94,2.08-2.08,2.08h-29.17c-1.15,0-2.08-.94-2.08-2.08v-16.67c0-1.15,.94-2.08,2.08-2.08Z"/></svg>