<?xml version="1.0" encoding="UTF-8"?><svg id="a" xmlns="http://www.w3.org/2000/svg" viewBox="0 0 200 200"><defs><style>.b{fill:#3db54a;font-size:24px;}.b,.c{letter-spacing:.2em;}.d{fill:#fff;}.e,.f{fill:#ccc;}.g{letter-spacing:.18em;}.h{letter-spacing:.2em;}.i{fill:none;stroke:#efefef;stroke-miterlimit:10;stroke-width:1.67px;}.j{font-family:FuturaPT-Heavy, Futura PT;}.f{font-size:12px;}</style></defs><text class="j" transform="translate(22.64 132.02)"><tspan class="b"><tspan x="0" y="0">QUESTION</tspan></tspan><tspan class="f"><tspan class="h" x="36.79" y="18">S</tspan><tspan class="g" x="45.79" y="18">T</tspan><tspan class="c" x="53.47" y="18">ORMING</tspan></tspan></text><rect class="i" width="200" height="200"/><g><path class="e" d="M119.66,69.83c.22-.77,.34-1.58,.34-2.41,0-4.84-3.91-8.75-8.75-8.75-1.3,0-2.57,.28-3.75,.84-2.47-3.52-6.59-5.84-11.25-5.84-7.37,0-13.41,5.82-13.73,13.14-4.45,1.56-7.52,5.79-7.52,10.61,0,6.22,5.03,11.25,11.25,11.25h28.75c5.52,0,10-4.47,10-10,0-3.67-2.02-7.09-5.34-8.84Z"/><path class="d" d="M100.5,70.1c-2.08,0-3.55,.86-4.68,2.54-.39,.57-.26,1.35,.29,1.77l1.14,.87c.56,.43,1.37,.33,1.81-.23,.58-.74,.77-.87,1.25-.87,.28,0,.69,.19,.69,.5,0,.7-2.97,.56-2.97,3.33v.37c0,.44,.21,.82,.54,1.06-.56,.48-.92,1.19-.92,1.99,0,1.44,1.17,2.61,2.61,2.61s2.61-1.17,2.61-2.61c0-.8-.36-1.51-.92-1.99,.33-.24,.54-.62,.54-1.06v-.13c.69-.52,2.84-1.21,2.84-3.79s-2.45-4.35-4.84-4.35Zm-.23,13.06c-.96,0-1.74-.78-1.74-1.74s.78-1.74,1.74-1.74,1.74,.78,1.74,1.74-.78,1.74-1.74,1.74Zm1.36-5.07v.28c0,.24-.19,.44-.44,.44h-1.86c-.24,0-.44-.19-.44-.44v-.37c0-2.36,2.97-1.56,2.97-3.33,0-.87-.86-1.37-1.56-1.37-.92,0-1.34,.44-1.94,1.2-.15,.19-.42,.22-.6,.08l-1.14-.87c-.18-.14-.23-.4-.1-.59,.93-1.38,2.11-2.15,3.96-2.15s3.97,1.5,3.97,3.48c0,2.63-2.84,2.67-2.84,3.64Z"/><path class="d" d="M88.2,61.14c-1.1,.48-1.68,1.27-1.89,2.42-.07,.39,.18,.77,.56,.87l.81,.2c.4,.1,.8-.14,.91-.54,.14-.53,.21-.64,.46-.75,.15-.06,.41-.06,.48,.1,.16,.37-1.44,.98-.81,2.45l.09,.2c.1,.23,.3,.39,.53,.44-.19,.38-.21,.84-.03,1.26,.33,.76,1.22,1.11,1.98,.78s1.11-1.22,.78-1.98c-.18-.42-.54-.72-.95-.84,.12-.2,.14-.46,.04-.69l-.03-.07c.25-.43,1.22-1.3,.63-2.66s-2.3-1.74-3.57-1.18Zm2.89,6.96c-.51,.22-1.1-.01-1.32-.52s.01-1.1,.52-1.32,1.1,.01,1.32,.52-.01,1.1-.52,1.32Zm-.45-3l.07,.15c.06,.13,0,.28-.13,.33l-.98,.43c-.13,.06-.28,0-.33-.13l-.09-.2c-.54-1.25,1.21-1.51,.81-2.45-.2-.46-.77-.52-1.14-.36-.49,.21-.61,.54-.75,1.08-.03,.13-.17,.21-.3,.18l-.81-.2c-.13-.03-.21-.16-.19-.29,.17-.94,.62-1.63,1.6-2.05s2.45-.12,2.91,.92c.61,1.39-.89,2.07-.66,2.58Z"/><path class="d" d="M113.6,71.92c-1.19-.11-2.09,.3-2.83,1.21-.25,.31-.22,.76,.07,1.03l.61,.56c.3,.28,.77,.26,1.06-.04,.38-.39,.49-.46,.77-.43,.16,.01,.39,.15,.37,.32-.04,.4-1.74,.16-1.89,1.75l-.02,.21c-.02,.25,.08,.48,.26,.64-.35,.25-.59,.64-.64,1.09-.08,.83,.53,1.56,1.36,1.64s1.56-.53,1.64-1.36c.04-.46-.12-.89-.42-1.19,.2-.12,.35-.33,.37-.58v-.07c.43-.26,1.7-.54,1.84-2.03s-1.17-2.63-2.55-2.76Zm-.83,7.49c-.55-.05-.96-.54-.91-1.09s.54-.96,1.09-.91,.96,.54,.91,1.09-.54,.96-1.09,.91Zm1.06-2.84l-.02,.16c-.01,.14-.14,.24-.27,.23l-1.07-.1c-.14-.01-.24-.14-.23-.27l.02-.21c.13-1.36,1.79-.74,1.89-1.75,.05-.5-.42-.83-.82-.87-.53-.05-.79,.18-1.18,.59-.09,.1-.25,.1-.35,.01l-.61-.56c-.1-.09-.11-.24-.02-.34,.61-.74,1.33-1.12,2.39-1.02s2.2,1.08,2.1,2.21c-.14,1.51-1.77,1.38-1.83,1.94Z"/><path class="d" d="M104.27,61.78c-.89-.08-1.56,.23-2.11,.9-.19,.23-.16,.57,.06,.77l.46,.42c.22,.21,.58,.2,.79-.03,.28-.29,.37-.34,.57-.32,.12,.01,.29,.11,.28,.24-.03,.3-1.3,.12-1.41,1.31l-.02,.16c-.02,.19,.06,.36,.19,.48-.26,.18-.44,.48-.48,.82-.06,.62,.4,1.17,1.02,1.23s1.17-.4,1.23-1.02c.03-.34-.09-.66-.32-.89,.15-.09,.26-.25,.28-.43v-.06c.32-.19,1.27-.41,1.38-1.52s-.88-1.97-1.91-2.06Zm-.62,5.6c-.41-.04-.72-.41-.68-.82s.41-.72,.82-.68,.72,.41,.68,.82-.41,.72-.82,.68Zm.79-2.12v.12c-.02,.1-.11,.18-.22,.17l-.8-.07c-.1,0-.18-.1-.17-.2l.02-.16c.1-1.01,1.34-.55,1.41-1.31,.04-.37-.32-.62-.61-.65-.39-.04-.59,.14-.88,.44-.07,.07-.19,.08-.26,0l-.46-.42c-.07-.07-.08-.18-.02-.26,.45-.56,.99-.84,1.79-.77s1.65,.8,1.57,1.65c-.11,1.13-1.33,1.03-1.37,1.45Z"/><path class="d" d="M88.18,76.93c-1.19-.11-2.09,.3-2.83,1.21-.25,.31-.22,.76,.07,1.03l.61,.56c.3,.28,.77,.26,1.06-.04,.38-.39,.49-.46,.77-.43,.16,.01,.39,.15,.37,.32-.04,.4-1.74,.16-1.89,1.75l-.02,.21c-.02,.25,.08,.48,.26,.64-.35,.25-.59,.64-.64,1.09-.08,.83,.53,1.56,1.36,1.64s1.56-.53,1.64-1.36c.04-.46-.12-.89-.42-1.19,.2-.12,.35-.33,.37-.58v-.07c.43-.26,1.7-.54,1.84-2.03s-1.17-2.63-2.55-2.76Zm-.83,7.49c-.55-.05-.96-.54-.91-1.09s.54-.96,1.09-.91,.96,.54,.91,1.09-.54,.96-1.09,.91Zm1.06-2.84l-.02,.16c-.01,.14-.14,.24-.27,.23l-1.07-.1c-.14-.01-.24-.14-.23-.27l.02-.21c.13-1.36,1.79-.74,1.89-1.75,.05-.5-.42-.83-.82-.87-.53-.05-.79,.18-1.18,.59-.09,.1-.25,.1-.35,.01l-.61-.56c-.1-.09-.11-.24-.02-.34,.61-.74,1.33-1.12,2.39-1.02s2.2,1.08,2.1,2.21c-.14,1.51-1.77,1.38-1.83,1.94Z"/></g></svg>