<?xml version="1.0" encoding="UTF-8"?><svg id="a" xmlns="http://www.w3.org/2000/svg" viewBox="0 0 200 200"><defs><style>.b{fill:#3db54a;font-size:24px;}.b,.c{letter-spacing:.2em;}.d{fill:#bbb;}.e{letter-spacing:.2em;}.f{fill:none;stroke:#efefef;stroke-miterlimit:10;stroke-width:1.67px;}.g{font-family:FuturaPT-Heavy, Futura PT;}.h{fill:#ccc;font-size:12px;}.i{letter-spacing:.15em;}</style></defs><text class="g" transform="translate(61.95 132.02)"><tspan class="b"><tspan x="0" y="0">READ</tspan></tspan><tspan class="h"><tspan class="c" x="-15.12" y="18">A CASE STU</tspan><tspan class="i" x="71.24" y="18">D</tspan><tspan class="e" x="81.24" y="18">Y</tspan></tspan></text><rect class="f" width="200" height="200"/><path class="d" d="M119.91,64.93c-.07,0-.14,0-.2,0-4.86,.28-13.72,1.27-19.71,4.65-5.99-3.38-14.85-4.37-19.71-4.65-.07,0-.13,0-.2,0-1.99,0-5.09,1.4-5.09,4.9v17.39c0,2.61,2.08,4.76,4.72,4.89,3.36,.18,11.77,.89,17.29,3.66,.53,.27,1.11,.4,1.68,.4h2.63c.57,0,1.14-.13,1.68-.4,5.51-2.77,13.92-3.48,17.29-3.66,2.65-.14,4.72-2.29,4.72-4.89v-17.39c0-3.5-3.1-4.9-5.09-4.9Zm-22.26,26.02c-5.92-2.52-13.49-3.29-17.69-3.51-.17,0-.28-.12-.28-.21l-.04-17.43c.07-.07,.32-.17,.38-.18,3.5,.2,12.22,.99,17.63,4.03v17.3Zm22.66-3.73c0,.1-.11,.21-.28,.21-4.19,.22-11.76,.99-17.69,3.51v-17.3c5.4-3.03,14.08-3.82,17.57-4.03,.14,.01,.37,.11,.4,.21v17.39Zm-20.31-22.29c5.18,0,9.38-4.2,9.38-9.37s-4.2-9.38-9.38-9.38-9.38,4.2-9.38,9.37,4.2,9.37,9.38,9.37h0Zm0-14.06c2.58,0,4.69,2.1,4.69,4.69s-2.1,4.69-4.69,4.69-4.69-2.1-4.69-4.69,2.1-4.69,4.69-4.69Z"/></svg>