<?xml version="1.0" encoding="UTF-8"?><svg xmlns="http://www.w3.org/2000/svg" viewBox="0 0 615.55 24.84"><g id="a"/><g id="b"><g id="c"><g><path d="M2.81,17.13c1.69,1.76,4.32,3.24,7.63,3.24,2.81,0,4.18-1.33,4.18-2.7,0-1.8-2.09-2.41-4.86-3.06C5.83,13.71,.79,12.63,.79,7.27,.79,3.28,4.25,.04,9.9,.04c3.82,0,6.98,1.15,9.36,3.35l-2.84,3.74c-1.94-1.8-4.54-2.63-6.88-2.63s-3.53,1.01-3.53,2.45c0,1.62,2.02,2.12,4.79,2.77,3.96,.9,9,2.09,9,7.42,0,4.39-3.13,7.7-9.61,7.7-4.61,0-7.92-1.55-10.19-3.82l2.81-3.89Z"/><path d="M28.55,24.4V4.9h-7.02V.4h19.15V4.9h-6.98V24.4h-5.15Z"/><path d="M57.53,24.4l-4.72-8.6h-3.74v8.6h-5.11V.4h11.23c5,0,8.06,3.28,8.06,7.74s-2.66,6.52-5.26,7.13l5.4,9.14h-5.87Zm-3.1-19.62h-5.36v6.62h5.36c2.05,0,3.6-1.3,3.6-3.31s-1.55-3.31-3.6-3.31Z"/><path d="M67.1,.4h5.18V14.65c0,3.35,1.84,5.65,5.58,5.65s5.51-2.3,5.51-5.65V.4h5.18V14.79c0,5.98-3.42,10.04-10.69,10.04s-10.76-4.1-10.76-10.01V.4Z"/><path d="M92.16,12.42c0-7.38,5.58-12.42,12.6-12.42,5.47,0,8.53,2.88,10.22,5.87l-4.39,2.16c-1.01-1.94-3.17-3.49-5.83-3.49-4.18,0-7.34,3.35-7.34,7.88s3.17,7.88,7.34,7.88c2.66,0,4.82-1.51,5.83-3.49l4.39,2.12c-1.73,2.99-4.75,5.9-10.22,5.9-7.02,0-12.6-5.04-12.6-12.42Z"/><path d="M123.59,24.4V4.9h-7.02V.4h19.15V4.9h-6.98V24.4h-5.15Z"/><path d="M138.99,.4h5.18V14.65c0,3.35,1.84,5.65,5.58,5.65s5.51-2.3,5.51-5.65V.4h5.18V14.79c0,5.98-3.42,10.04-10.69,10.04s-10.76-4.1-10.76-10.01V.4Z"/><path d="M178.77,24.4l-4.72-8.6h-3.74v8.6h-5.11V.4h11.23c5,0,8.06,3.28,8.06,7.74s-2.66,6.52-5.26,7.13l5.4,9.14h-5.87Zm-3.1-19.62h-5.36v6.62h5.36c2.05,0,3.6-1.3,3.6-3.31s-1.55-3.31-3.6-3.31Z"/><path d="M188.35,24.4V.4h16.99V4.79h-11.88v5.22h11.63v4.39h-11.63v5.58h11.88v4.43h-16.99Z"/><path d="M209.34,24.4V.4h9.47c7.52,0,12.74,4.79,12.74,12.02s-5.22,11.99-12.74,11.99h-9.47Zm5.11-4.5h4.35c4.75,0,7.52-3.42,7.52-7.49s-2.59-7.52-7.52-7.52h-4.35v15.01Z"/><path d="M257.97,24.4l-4.72-8.6h-3.74v8.6h-5.11V.4h11.23c5,0,8.06,3.28,8.06,7.74s-2.66,6.52-5.26,7.13l5.4,9.14h-5.87Zm-3.1-19.62h-5.36v6.62h5.36c2.05,0,3.6-1.3,3.6-3.31s-1.55-3.31-3.6-3.31Z"/><path d="M284.36,24.4l-1.51-4.14h-10.73l-1.51,4.14h-5.62L274.28,.4h6.41l9.25,24.01h-5.58Zm-6.88-19.58l-4,11.01h7.96l-3.96-11.01Z"/><path d="M292.17,24.4V.4h11.23c5.22,0,8.06,3.53,8.06,7.74s-2.88,7.67-8.06,7.67h-6.12v8.6h-5.11Zm10.55-19.62h-5.44v6.62h5.44c2.02,0,3.53-1.3,3.53-3.31s-1.51-3.31-3.53-3.31Z"/><path d="M314.64,24.4V.4h5.11V24.4h-5.11Z"/><path d="M324.5,24.4V.4h9.47c7.52,0,12.74,4.79,12.74,12.02s-5.22,11.99-12.74,11.99h-9.47Zm5.11-4.5h4.35c4.75,0,7.52-3.42,7.52-7.49s-2.59-7.52-7.52-7.52h-4.35v15.01Z"/><path d="M359.56,24.4V.4h9.47c7.52,0,12.74,4.79,12.74,12.02s-5.22,11.99-12.74,11.99h-9.47Zm5.11-4.5h4.35c4.75,0,7.52-3.42,7.52-7.49s-2.59-7.52-7.52-7.52h-4.35v15.01Z"/><path d="M385.41,24.4V.4h16.99V4.79h-11.88v5.22h11.63v4.39h-11.63v5.58h11.88v4.43h-16.99Z"/><path d="M413.13,24.4L403.84,.4h5.83l6.66,18.47L422.96,.4h5.83l-9.25,24.01h-6.41Z"/><path d="M431.02,24.4V.4h16.99V4.79h-11.88v5.22h11.63v4.39h-11.63v5.58h11.88v4.43h-16.99Z"/><path d="M452.01,24.4V.4h5.11V19.91h10.15v4.5h-15.26Z"/><path d="M481.24,0c7.27,0,12.56,5.18,12.56,12.42s-5.29,12.42-12.56,12.42-12.53-5.18-12.53-12.42,5.29-12.42,12.53-12.42Zm0,4.54c-4.43,0-7.27,3.38-7.27,7.88s2.84,7.88,7.27,7.88,7.31-3.42,7.31-7.88-2.88-7.88-7.31-7.88Z"/><path d="M497.41,24.4V.4h11.23c5.22,0,8.06,3.53,8.06,7.74s-2.88,7.67-8.06,7.67h-6.12v8.6h-5.11Zm10.55-19.62h-5.44v6.62h5.44c2.02,0,3.53-1.3,3.53-3.31s-1.51-3.31-3.53-3.31Z"/><path d="M540.75,24.4V7.13l-6.77,17.28h-2.23l-6.77-17.28V24.4h-5.11V.4h7.16l5.83,14.97,5.83-14.97h7.2V24.4h-5.15Z"/><path d="M550.65,24.4V.4h16.99V4.79h-11.88v5.22h11.63v4.39h-11.63v5.58h11.88v4.43h-16.99Z"/><path d="M588.2,24.4l-11.45-16.13V24.4h-5.11V.4h5.25l11.12,15.55V.4h5.11V24.4h-4.93Z"/><path d="M603.42,24.4V4.9h-7.02V.4h19.15V4.9h-6.98V24.4h-5.15Z"/></g></g></g></svg>