<?xml version="1.0" encoding="UTF-8"?><svg id="a" xmlns="http://www.w3.org/2000/svg" viewBox="0 0 200 200"><defs><style>.b{fill:#3db54a;font-size:24px;}.b,.c{letter-spacing:.2em;}.d,.e{fill:#ccc;}.f{letter-spacing:.18em;}.g{letter-spacing:.2em;}.h{letter-spacing:.21em;}.i{fill:none;stroke:#efefef;stroke-miterlimit:10;stroke-width:1.67px;}.j{font-family:FuturaPT-Heavy, Futura PT;}.e{font-size:12px;}</style></defs><text class="j" transform="translate(24.87 132.02)"><tspan class="b"><tspan x="0" y="0">FISHBONE</tspan></tspan><tspan class="e"><tspan class="g" x="39.16" y="18">DI</tspan><tspan class="f" x="55.85" y="18">A</tspan><tspan class="c" x="66.13" y="18">G</tspan><tspan class="h" x="77.74" y="18">R</tspan><tspan class="c" x="87.55" y="18">AM</tspan></tspan></text><rect class="i" width="200" height="200"/><path class="d" d="M110.25,56.41h-10.02v-3.9h10.02v3.9Zm-7.24,8.91h10.02v-3.9h-10.02v3.9Zm-17.26-12.81h-10.02v3.9h10.02v-3.9Zm-7.24,12.81h10.02v-3.9h-10.02v3.9Zm34.52,13.92h-10.02v3.9h10.02v-3.9Zm-24.5,0h-10.02v3.9h10.02v-3.9Zm11.69,12.81h10.02v-3.9h-10.02v3.9Zm-24.5,0h10.02v-3.9h-10.02v3.9Zm40.92-42.87h-4.18l8.46,21.16h-20.94l-8.46-21.16h-4.18l8.46,21.16h-17.32v3.9h17.04l-8.41,20.6h4.18l8.46-20.6h20.88l-8.24,20.6h4.18l9.13-22.83-9.08-22.83Z"/></svg>