<?xml version="1.0" encoding="UTF-8"?><svg id="a" xmlns="http://www.w3.org/2000/svg" viewBox="0 0 200 200"><defs><style>.b{letter-spacing:.03em;}.c{letter-spacing:.02em;}.d{fill:#bbb;}.e{letter-spacing:.2em;}.f{letter-spacing:-.03em;}.g{fill:none;stroke:#efefef;stroke-miterlimit:10;stroke-width:1.67px;}.h{fill:#3db54a;font-size:24px;}.i{font-family:FuturaPT-Heavy, Futura PT;}.j{fill:#ccc;font-size:12px;}.k{letter-spacing:0em;}.l{letter-spacing:0em;}</style></defs><text class="i" transform="translate(51.11 132.02)"><tspan class="h"><tspan class="e" x="0" y="0">LISTE</tspan><tspan class="k" x="78.38" y="0">N</tspan></tspan><tspan class="j"><tspan class="l" x="-1.03" y="18">T</tspan><tspan class="b" x="4.55" y="18">O A CASE STU</tspan><tspan class="f" x="83.03" y="18">D</tspan><tspan class="c" x="90.93" y="18">Y</tspan></tspan></text><rect class="g" width="200" height="200"/><path class="d" d="M100,50.13c-13.82,0-25,11.18-25,25v4.85c0,.85,.46,1.63,1.2,2.05l1.92,1.07c.09,5.97,4.95,10.78,10.94,10.78h2.34c1.29,0,2.34-1.05,2.34-2.34v-17.19c0-1.29-1.05-2.34-2.34-2.34h-2.34c-3.98,0-7.46,2.12-9.37,5.3v-2.18c0-11.2,9.11-20.31,20.31-20.31s20.31,9.11,20.31,20.31v2.18c-1.91-3.18-5.4-5.3-9.37-5.3h-2.34c-1.29,0-2.34,1.05-2.34,2.34v17.19c0,1.29,1.05,2.34,2.34,2.34h2.34c5.99,0,10.85-4.81,10.94-10.78l1.92-1.07c.74-.41,1.2-1.2,1.2-2.05v-4.85c0-13.82-11.18-25-25-25Zm-10.94,26.56v12.5c-3.45,0-6.25-2.8-6.25-6.25s2.8-6.25,6.25-6.25Zm21.87,12.5v-12.5c3.45,0,6.25,2.8,6.25,6.25s-2.8,6.25-6.25,6.25Z"/></svg>