<?xml version="1.0" encoding="UTF-8"?><svg id="a" xmlns="http://www.w3.org/2000/svg" viewBox="0 0 200 200"><defs><style>.ai{stroke:#e5e5e5;stroke-linecap:round;stroke-linejoin:round;}.ai,.aj,.ak{fill:none;}.al{fill:#515151;stroke-width:1.5px;}.al,.ak{stroke:#fff;}.am,.an{fill:#ccc;}.ao{font-family:FuturaPT-Heavy, Futura PT;letter-spacing:.2em;}.aj{stroke:#efefef;stroke-miterlimit:10;stroke-width:1.67px;}.ap{fill:#3db54a;font-size:24px;}.an{font-size:12px;}</style></defs><text class="ao" transform="translate(31.37 132.02)"><tspan class="ap"><tspan x="0" y="0">PROBLEM</tspan></tspan><tspan class="an"><tspan x="51.4" y="18">TREE</tspan></tspan></text><rect class="aj" width="200" height="200"/><path class="am" d="M119.92,66.82c.26-.87,.4-1.75,.4-2.63,0-5.17-4.21-9.38-9.38-9.38-.56,0-1.12,.05-1.67,.15-.68-4.5-4.58-7.96-9.27-7.96s-8.59,3.46-9.27,7.96c-.55-.1-1.11-.15-1.67-.15-5.17,0-9.38,4.21-9.38,9.38,0,.89,.13,1.77,.4,2.63-3.1,1.58-5.08,4.74-5.08,8.3,0,5.17,4.21,9.38,9.38,9.38h10.94v5.51l-2.36,4.73c-.52,1.04,.24,2.26,1.4,2.26h11.31c1.16,0,1.92-1.22,1.4-2.26l-2.36-4.73v-5.51h10.94c5.17,0,9.38-4.21,9.38-9.38,0-3.56-1.99-6.72-5.08-8.3h0Zm-23.04,27.05l1.56-3.12v-6.25h3.12v6.25l1.56,3.12h-6.25Zm18.75-12.5h-31.25c-3.45,0-6.25-2.8-6.25-6.25,0-2.75,1.79-5.14,4.44-5.95l1.77-.54-.83-1.66c-.46-.92-.69-1.86-.69-2.79,0-3.45,2.8-6.25,6.25-6.25,1.4,0,1.95,.29,5,1.66-.28-3.1-.22-2.48-.31-3.22,0-3.45,2.8-6.25,6.25-6.25s6.25,2.8,6.23,6.49l-.28,2.98c2.76-1.24,3.44-1.66,5-1.66,3.45,0,6.25,2.8,6.25,6.25,0,.94-.24,1.88-.69,2.79l-.83,1.66,1.77,.54c2.65,.81,4.44,3.2,4.44,5.95,0,3.45-2.8,6.25-6.25,6.25Z"/><g id="b"><g id="c" transform="translate(-21.000000, -33.000000)"><g id="d" transform="translate(22.000000, 33.000000)"><path id="e" class="ai" d="M100,101.53V55"/><path id="f" class="ai" d="M100,84.63l12.5-11.03"/><g id="g" transform="translate(34.000000, 0.000000)"><path id="h" class="ai" d="M100,55.74l9.58-16.45"/><path id="i" class="ai" d="M90,39l10,16-10-16Z"/></g><path id="j" class="ai" d="M123,43l-2,14"/><path id="k" class="ai" d="M134,51l-13,6"/><path id="l" class="ai" d="M121.5,56.59l-9,16.92"/><path id="m" class="ai" d="M137.5,68.5l-25,5"/><path id="n" class="ai" d="M100,84.63l-12.5-11.03"/><path id="o" class="ai" d="M78.5,56.59l9,16.92"/><path id="p" class="ai" d="M62.5,68.5l25,5"/><path id="q" class="ai" d="M137,68.98l6.98-6.98"/><path id="r" class="ai" d="M143.98,75.61l-6.98-7"/><path id="s" class="ai" d="M77,43l2,14"/><path id="t" class="ai" d="M66,51l13,6"/><path id="u" class="ai" d="M63,68.98l-6.98-6.98"/><path id="v" class="ai" d="M56.02,75.61l6.98-7"/><g id="w" transform="translate(65.000000, 18.000000) rotate(-90.000000) translate(-65.000000, -18.000000) "><circle class="al" cx="121" cy="57" r="2.25"/><circle id="x" class="ak" cx="121" cy="57" r="3"/></g><g id="y" transform="translate(44.000000, 14.000000) rotate(-90.000000) translate(-44.000000, -14.000000) "><circle class="al" cx="100" cy="53" r="2.25"/><circle id="a`" class="ak" cx="100" cy="53" r="3"/></g><g id="aa" transform="translate(23.000000, 18.000000) rotate(-90.000000) translate(-23.000000, -18.000000) "><circle class="al" cx="79" cy="57" r="2.25"/><circle id="ab" class="ak" cx="79" cy="57" r="3"/></g><g id="ac" transform="translate(44.000000, 63.000000) rotate(-90.000000) translate(-44.000000, -63.000000) "><circle class="al" cx="100" cy="102" r="2.25"/><circle id="ad" class="ak" cx="100" cy="102" r="3"/></g><g id="ae" transform="translate(83.000000, 29.500000) rotate(-90.000000) translate(-83.000000, -29.500000) "><circle class="al" cx="139" cy="68.5" r="2.25"/><circle id="af" class="ak" cx="139" cy="68.5" r="3"/></g><g id="ag" transform="translate(6.000000, 29.500000) rotate(-90.000000) translate(-6.000000, -29.500000) "><circle class="al" cx="62" cy="68.5" r="2.25"/><circle id="ah" class="ak" cx="62" cy="68.5" r="3"/></g></g></g></g></svg>