<svg xmlns="http://www.w3.org/2000/svg" viewBox="0 0 750 500"><g id="freepik--background-complete--inject-514"><rect x="231.67" y="69.16" width="51.7" height="65.27" style="fill:#ebebeb"></rect><rect x="254.26" y="132.97" width="7.17" height="1.74" style="fill:#e0e0e0"></rect><polygon points="259.18 91.63 249.65 93.03 246.1 101.97 252.06 109.52 261.59 108.13 265.14 99.18 259.18 91.63" style="fill:#e0e0e0"></polygon><polygon points="263.63 97.42 254.1 98.81 250.55 107.75 256.52 115.31 266.04 113.91 269.6 104.97 263.63 97.42" style="fill:#f5f5f5"></polygon><rect x="255.27" y="68.28" width="7.17" height="1.49" style="fill:#e0e0e0"></rect><rect x="294.59" y="51.59" width="27.44" height="34.64" style="fill:#ebebeb"></rect><rect x="306.58" y="85.45" width="3.81" height="0.92" style="fill:#e0e0e0"></rect><polygon points="309.19 63.51 304.13 64.25 302.25 69 305.42 73.01 310.47 72.27 312.36 67.52 309.19 63.51" style="fill:#e0e0e0"></polygon><polygon points="311.55 66.58 306.5 67.32 304.61 72.07 307.78 76.08 312.83 75.34 314.72 70.59 311.55 66.58" style="fill:#f5f5f5"></polygon><rect x="307.12" y="51.12" width="3.81" height="0.79" style="fill:#e0e0e0"></rect><rect x="66.16" y="59.27" width="120.53" height="212.72" style="fill:#f5f5f5"></rect><path d="M187.87,110.85v-1.34H162.2V58.08h-1.74v51.43H130.32V56.58h-6.73v52.93h-31V58.08H90.83v51.43H66v1.34H90.83v51.42H66V169H90.83v53.53H66v1.33H90.83V272h1.73V223.85h31v46.61h6.73V223.85h30.14V272h1.74V223.85h25.67v-1.33H162.2V169h25.67v-6.72H162.2V110.85Zm-95.31,0h31v51.42h-31Zm0,111.67V169h31v53.53Zm67.9,0H130.32V169h30.14Zm0-60.25H130.32V110.85h30.14Z" style="fill:#fff"></path><rect x="543.87" y="65.34" width="120.53" height="212.72" style="fill:#f5f5f5"></rect><path d="M665.58,116.92v-1.34H639.91V64.15h-1.73v51.43H608V62.65H601.3v52.93h-31V64.15h-1.73v51.43H543.75v1.34h24.79v51.42H543.75v6.72h24.79v53.52H543.75v1.34h24.79V278h1.73V229.92h31v46.61H608V229.92h30.15V278h1.73V229.92h25.67v-1.34H639.91V175.06h25.67v-6.72H639.91V116.92Zm-95.31,0h31v51.42h-31Zm0,111.66V175.06h31v53.52Zm67.91,0H608V175.06h30.15Zm0-60.24H608V116.92h30.15Z" style="fill:#fff"></path></g><g id="freepik--Floor--inject-514"><path d="M722.64,420.62c0,.14-156.11.26-348.62.26s-348.66-.12-348.66-.26,156.07-.27,348.66-.27S722.64,420.47,722.64,420.62Z" style="fill:#263238"></path></g><g id="freepik--Device--inject-514"><rect x="138.41" y="150.86" width="402.04" height="265.86" rx="14.57" style="fill:#263238"></rect><path d="M122.16,397.06H557.73a0,0,0,0,1,0,0v5.47a17.8,17.8,0,0,1-17.8,17.8H140a17.8,17.8,0,0,1-17.8-17.8v-5.47a0,0,0,0,1,0,0Z" style="fill:#455a64"></path><rect x="149.76" y="161.42" width="379.33" height="224.52" style="fill:#ebebeb"></rect><path d="M300.35,397.06l.42,0h1.28l4.95,0,18.38-.07,61.45-.13h.46l-.23.39-2.44,4.18L382,405.79l-.08.12h-.15l-76.05-.14h-.07l0,0-4-6.48-1-1.64-.32-.54s.14.19.38.57.61.93,1.06,1.64l4.07,6.32-.1,0,76.05-.15-.22.13,2.58-4.42,2.44-4.17.22.39-61.2-.14-18.46-.07-5,0h-1.78Z" style="fill:#263238"></path><path d="M288.57,203.19a12.49,12.49,0,0,1,2.41-2.46l-.58-3.15,4.86-2.07,1.87,2.59a12.84,12.84,0,0,1,3.45,0l1.81-2.63,4.9,2-.5,3.16a12.77,12.77,0,0,1,2.46,2.41l3.14-.58,2.07,4.86-2.58,1.87a12.85,12.85,0,0,1,0,3.45l2.63,1.81-2,4.9-3.15-.5a13.07,13.07,0,0,1-2.41,2.46l.57,3.14-4.86,2.07-1.87-2.58a12.77,12.77,0,0,1-3.44,0l-1.82,2.63-4.9-2,.51-3.15a12.78,12.78,0,0,1-2.46-2.41l-3.15.57-2.07-4.86,2.59-1.87a12.77,12.77,0,0,1,0-3.44l-2.63-1.82,2-4.9,3.16.51Zm5.25,5.46a5.67,5.67,0,1,0,7.37-3.15A5.67,5.67,0,0,0,293.82,208.65Z" style="fill:#e0e0e0;fill-rule:evenodd"></path><path d="M268.87,305.08a37.74,37.74,0,0,1,7-7.13l-1.66-9.1,14.08-6,5.42,7.5a37.86,37.86,0,0,1,10-.11l5.26-7.61,14.21,5.71-1.47,9.13a37.5,37.5,0,0,1,7.13,7l9.1-1.67,6,14.08-7.49,5.43a37.44,37.44,0,0,1,.1,10l7.61,5.26-5.7,14.2-9.14-1.47a37.45,37.45,0,0,1-7,7.13L324,366.5l-14.08,6-5.42-7.5a37.86,37.86,0,0,1-10,.11l-5.26,7.61L275,367l1.47-9.13a37.5,37.5,0,0,1-7.13-7l-9.1,1.66-6-14.08,7.5-5.42a37.43,37.43,0,0,1-.11-10L254,317.82l5.71-14.2,9.13,1.46Zm15.23,15.83a16.42,16.42,0,1,0,21.36-9.12A16.42,16.42,0,0,0,284.1,320.91Z" style="fill:#f5f5f5;fill-rule:evenodd"></path><path d="M197.72,324.05a21,21,0,0,1,3.86-3.95l-.92-5,7.79-3.33,3,4.15a20.8,20.8,0,0,1,5.52-.06l2.91-4.21,7.86,3.16-.81,5.05a20.36,20.36,0,0,1,3.94,3.87l5-.92,3.32,7.79-4.14,3a20.8,20.8,0,0,1,.06,5.52l4.21,2.91-3.16,7.86-5-.82a21,21,0,0,1-3.87,3.95l.92,5-7.79,3.33-3-4.15a20.8,20.8,0,0,1-5.52.06L209,361.47l-7.86-3.16.81-5.05A20.6,20.6,0,0,1,198,349.4l-5,.92-3.32-7.79,4.15-3a20.8,20.8,0,0,1-.06-5.52l-4.21-2.91,3.15-7.86,5.06.81Zm8.43,8.75a9.09,9.09,0,1,0,11.81-5A9.07,9.07,0,0,0,206.15,332.8Z" style="fill:none"></path><path d="M206.15,332.8a6.65,6.65,0,0,1,1-2,9.06,9.06,0,0,1,5-3.53,9.2,9.2,0,0,1,8.67,2,8.8,8.8,0,0,1,1.72,2.05,8.43,8.43,0,0,1,1.1,2.57,9.27,9.27,0,0,1-4.11,10.25,8.82,8.82,0,0,1-2.58,1.09,8.36,8.36,0,0,1-2.66.29,9.21,9.21,0,0,1-7.64-4.57,9.05,9.05,0,0,1-1.14-6,6.89,6.89,0,0,1,.67-2.15,21.2,21.2,0,0,0-.47,2.18,9.12,9.12,0,0,0,1.26,5.77,8.83,8.83,0,0,0,2.87,2.91,8.94,8.94,0,0,0,4.46,1.36,8.87,8.87,0,0,0,5-1.34,8.78,8.78,0,0,0,3.89-9.68,8.15,8.15,0,0,0-1-2.44,8.6,8.6,0,0,0-1.62-2,9,9,0,0,0-4.17-2.11,8.83,8.83,0,0,0-4.08.13,9,9,0,0,0-4.9,3.29A21.44,21.44,0,0,0,206.15,332.8Z" style="fill:#263238"></path><path d="M197.72,324.05l-.32,0-1-.14-3.79-.56.09-.05c-.79,2-1.84,4.67-3.11,7.87l0-.15,4.22,2.89.08.05V334a20.63,20.63,0,0,0,.08,5.48v.1l-.08.06-4.14,3,.06-.23,3.34,7.79-.22-.13,5-.92.13,0,.08.1a20.59,20.59,0,0,0,3.91,3.82l.11.08,0,.14c-.25,1.56-.53,3.29-.81,5.05l-.14-.25,7.86,3.15-.29.08,2.91-4.21.08-.12.15,0a20.46,20.46,0,0,0,5.46-.07l.15,0,.09.12,3,4.15-.31-.09,7.79-3.32-.15.28c-.29-1.59-.61-3.31-.92-5l0-.16.12-.1a20.44,20.44,0,0,0,3.82-3.89h0l.09-.13.16,0,5.05.81-.28.16,3.16-7.86.09.31L235,339.3l-.13-.09,0-.15a20.35,20.35,0,0,0,0-5.46l0-.15.12-.09,4.15-3-.08.3c-1.14-2.66-2.24-5.26-3.32-7.79l.26.14-5,.92-.14,0-.09-.11A20.72,20.72,0,0,0,226.8,320l-.11-.08,0-.13c.28-1.74.55-3.42.82-5.05l.13.23-7.85-3.17.24-.08-2.92,4.21-.07.09H217a20.35,20.35,0,0,0-5.47,0l-.11,0-.06-.09-3-4.16.18.06-7.8,3.28.07-.12.88,5v.05l0,0a20.79,20.79,0,0,0-3,2.84l-.67.78-.22.26a2,2,0,0,1,.19-.29c.13-.18.34-.46.63-.81a20.39,20.39,0,0,1,3-2.91l0,.08-.95-5,0-.09.09,0,7.77-3.36.11-.05.08.1,3,4.14-.16-.07a21,21,0,0,1,5.57-.07l-.18.07,2.9-4.21.09-.13.15.06,7.86,3.14.16.06,0,.17c-.27,1.64-.53,3.32-.81,5.06l-.08-.22a21.31,21.31,0,0,1,4,3.9l-.23-.08,5-.93.19,0,.07.17c1.08,2.53,2.2,5.13,3.33,7.79l.08.18-.16.12-4.15,3,.11-.24a21.33,21.33,0,0,1,.06,5.59l-.11-.24,4.21,2.9.17.12-.07.19Q238,346,236.44,350l-.08.2-.2,0-5-.81.25-.1h0a20.86,20.86,0,0,1-3.91,4l.1-.25c.31,1.73.63,3.45.92,5l0,.2-.19.08-7.79,3.32-.19.08-.11-.16-3-4.15.24.1a21.42,21.42,0,0,1-5.59.06l.23-.11c-1,1.46-2,2.9-2.91,4.21l-.11.16-.18-.07L201,358.53l-.18-.07,0-.18c.29-1.76.57-3.49.82-5l.09.21a20.82,20.82,0,0,1-4-3.91l.21.08-5,.91-.16,0-.07-.15-3.3-7.8-.06-.14.12-.08,4.16-3-.07.16a20.75,20.75,0,0,1,0-5.56l.06.14-4.2-2.93-.08-.06,0-.09,3.21-7.84,0-.07h.07l3.74.65,1,.18Z" style="fill:#263238"></path><path d="M178.48,220.07a51.8,51.8,0,0,1,6.42-12.17l-5.77-11.38,16.25-13.47,10.11,7.77a51.77,51.77,0,0,1,13.15-4.06l4-12.13,21,2,1.65,12.65a51.47,51.47,0,0,1,12.17,6.43l11.38-5.78,13.47,16.25-7.78,10.11a51.39,51.39,0,0,1,4.07,13.15l12.13,4-2,21L276.1,256a51.47,51.47,0,0,1-6.43,12.17l5.78,11.38L259.2,293.05l-10.11-7.78a51.39,51.39,0,0,1-13.15,4.07l-4,12.13-21-2-1.65-12.65a51.47,51.47,0,0,1-12.17-6.43l-11.38,5.78L172.29,270l7.77-10.11A51.77,51.77,0,0,1,176,246.7l-12.13-4,2-21,12.65-1.65ZM204.83,235a22.65,22.65,0,1,0,24.65-20.44A22.64,22.64,0,0,0,204.83,235Z" style="fill:#e0e0e0;fill-rule:evenodd"></path></g><g id="freepik--computer-window--inject-514"><rect x="292.82" y="121.68" width="328.26" height="224.23" rx="3.27" style="fill:#CADBC2"></rect><polygon points="621.39 346.15 291.67 347.38 292.48 137.96 621.39 137.96 621.39 346.15" style="fill:#fafafa"></polygon><path d="M316.23,130.58a2.08,2.08,0,1,1-2.07-2.12A2.1,2.1,0,0,1,316.23,130.58Z" style="fill:#263238"></path><path d="M304.27,130.65a2.08,2.08,0,1,1-2.08-2.11A2.1,2.1,0,0,1,304.27,130.65Z" style="fill:#263238"></path><path d="M310.39,130.58a2.08,2.08,0,1,1-2.08-2.12A2.1,2.1,0,0,1,310.39,130.58Z" style="fill:#263238"></path><rect x="312.75" y="270.86" width="290.99" height="62" style="fill:#ebebeb"></rect><path d="M576.53,282c0,.14-56.48.26-126.14.26s-126.15-.12-126.15-.26,56.47-.26,126.15-.26S576.53,281.84,576.53,282Z" style="fill:#263238"></path><path d="M443.84,317.93c0-.05.72,0,2-.26A10.31,10.31,0,0,0,451,314.9a10.19,10.19,0,0,0,2.93-8.45,10.72,10.72,0,0,0-.71-2.69,10.92,10.92,0,0,0-1.54-2.53,10.17,10.17,0,0,0-5.37-3.37,13.05,13.05,0,0,0-3.46-.3h-3.68l-7.83,0-17.27,0-39.56,0a10.31,10.31,0,0,0-4.88,1.27,10.15,10.15,0,0,0-3.61,3.43,10,10,0,0,0,6.49,15.15,26.72,26.72,0,0,0,4.66.21h4.61l32.32.06,21.78.08,5.92.05,1.54,0,.53,0-.53,0-1.54,0-5.92,0-21.78.09-32.32.05h-4.61a27.4,27.4,0,0,1-4.76-.21,10.53,10.53,0,0,1-3-19.52,10.75,10.75,0,0,1,5.13-1.34l39.56,0,17.27,0,7.83,0h3.68a12.71,12.71,0,0,1,3.55.33,10.47,10.47,0,0,1,5.54,3.51,11.6,11.6,0,0,1,1.57,2.62,11.37,11.37,0,0,1,.71,2.78,10.35,10.35,0,0,1-8.29,11.36,9.93,9.93,0,0,1-1.54.15Z" style="fill:#263238"></path><path d="M552.74,317.93c0-.05.72,0,2-.26a10.34,10.34,0,0,0,5.1-2.77,10.19,10.19,0,0,0,2.92-8.45,10.72,10.72,0,0,0-.71-2.69,11.23,11.23,0,0,0-1.53-2.53,10.17,10.17,0,0,0-5.37-3.37,13.09,13.09,0,0,0-3.46-.3H548l-7.83,0-17.26,0-39.57,0a10.34,10.34,0,0,0-4.88,1.27,10,10,0,0,0,2.88,18.58,26.76,26.76,0,0,0,4.66.21h4.62l32.31.06,21.78.08,5.93.05,1.54,0,.52,0-.52,0-1.54,0-5.93,0-21.78.09-32.31.05H486a27.4,27.4,0,0,1-4.76-.21,10.52,10.52,0,0,1-6.82-15.91,10.5,10.5,0,0,1,3.79-3.61,10.78,10.78,0,0,1,5.13-1.34l39.57,0,17.26,0,7.83,0h3.69a12.74,12.74,0,0,1,3.55.33,10.48,10.48,0,0,1,5.53,3.51,11.24,11.24,0,0,1,1.57,2.62,11.37,11.37,0,0,1,.71,2.78,10.35,10.35,0,0,1-8.29,11.36,9.82,9.82,0,0,1-1.53.15Z" style="fill:#263238"></path><rect x="310.39" y="155.44" width="104.98" height="100.07" style="fill:#CADBC2"></rect><path d="M412.91,251s0-.59,0-1.69,0-2.76,0-4.89c0-4.28,0-10.54-.06-18.5,0-15.93-.07-38.68-.11-66l.22.23-98.4,0h0l.26-.26c0,33.22,0,64.43,0,91.11l-.23-.23,71.21.11,20.05.06,5.31,0h1.37l.47,0h-1.79l-5.26,0-20,.06-71.35.12h-.23V251c0-26.68,0-57.89,0-91.11v-.26h.27l98.4,0h.22v.22c-.05,27.41-.09,50.21-.11,66.17,0,7.94,0,14.18-.06,18.45,0,2.11,0,3.74,0,4.84S412.91,251,412.91,251Z" style="fill:#263238"></path><path d="M412.91,202.87a2.65,2.65,0,0,1-.4-.29l-1.12-.89-4.23-3.44L392,185.72h.27l-28.78,23.56-4.91,4-.17.14-.17-.15-15.06-13.72h.32l-20.53,17.72-5.87,5-1.57,1.32-.4.33-.15.1s0-.05.12-.13l.38-.36,1.52-1.37,5.78-5.11,20.41-17.86.16-.14.15.14,15.09,13.69h-.33l4.9-4L392,185.39l.14-.11.13.12,15.09,12.66,4.16,3.54,1.08.93A3.26,3.26,0,0,1,412.91,202.87Z" style="fill:#263238"></path><path d="M369.69,179.72c-.06,0,0-.66-.33-1.79a7.45,7.45,0,0,0-2.73-4,7.12,7.12,0,0,0-3.06-1.33,7.32,7.32,0,0,0-3.79.33,7.23,7.23,0,0,0-4.73,6.77,7.26,7.26,0,0,0,1.39,4.26,7.19,7.19,0,0,0,3.34,2.52,7.32,7.32,0,0,0,3.79.33,7.12,7.12,0,0,0,3.06-1.33,7.45,7.45,0,0,0,2.73-4c.3-1.13.27-1.8.33-1.8a3.06,3.06,0,0,1,0,.48,6.49,6.49,0,0,1-.17,1.37,7.39,7.39,0,0,1-2.69,4.22,7.48,7.48,0,0,1-3.21,1.46,7.67,7.67,0,1,1,0-15.05,7.53,7.53,0,0,1,3.21,1.46,7.39,7.39,0,0,1,2.69,4.22,6.49,6.49,0,0,1,.17,1.37A2.7,2.7,0,0,1,369.69,179.72Z" style="fill:#263238"></path></g><g id="freepik--character-2--inject-514"><path d="M648.46,253.7l-11.27-14.08S619,253.81,617,252.73c-11.42-6-20.65-17-23.78-21-.11-.72-.22-1.58-.31-2.59a7.87,7.87,0,0,1,.24-2.6,11.84,11.84,0,0,1,1.14-3,1,1,0,0,0-1-1.61c-.86.3-2.47,2.54-3,5.71s-3-1.24-4-2.83-4.06-6.38-4.78-6.48c-1.05-.14-1.4,1-.42,2.53s3.55,6.47,2.69,6.92-5.51-7.72-5.51-7.72-.71-1.9-1.73-1.41c-1.83.89,3.76,9.2,4.31,10,.38.54-.54,1.06-.92.46s-4.45-8.25-6.33-7.36c-1.44.67,4.53,6.88,4.5,8.93s-4.05-5.17-5.4-4.46c-.5.26-.84.53,2.06,4.34a96.35,96.35,0,0,0,7,7.6l0,0s26.89,41.33,45.57,30.3C647.14,256.7,648.46,253.7,648.46,253.7Z" style="fill:#eb996e"></path><path d="M692.12,429l-5.82-4.52,8.38-11,8.59,6.51-.48.72c-2.14,3.15-11.13,15.88-13.29,17.43C687.1,439.94,692.12,429,692.12,429Z" style="fill:#CADBC2"></path><g style="opacity:0.4"><path d="M689.83,434.49s-1.56,4-.71,4,10.42-12.51,14.15-18.41l-.26-.16-11,14.69S690.34,433.87,689.83,434.49Z" style="fill:#fff"></path></g><path d="M703.14,419.72l-.13.2-.38.57-1.43,2.06c-1.23,1.73-3,4.09-4.92,6.67s-3.79,4.86-5.13,6.5c-.63.76-1.17,1.4-1.6,1.93l-.45.51-.16.18s0-.07.13-.2l.43-.53,1.56-2c1.32-1.65,3.13-3.95,5.09-6.53s3.7-4.92,5-6.63l1.48-2,.41-.55C703.08,419.78,703.13,419.71,703.14,419.72Z" style="fill:#263238"></path><path d="M692.15,434.72a5.5,5.5,0,0,0-1.23-.35,5.82,5.82,0,0,0-1.28.09,1.86,1.86,0,0,1,1.29-.26A1.78,1.78,0,0,1,692.15,434.72Z" style="fill:#263238"></path><path d="M693,430.23s-.31.06-.68,0-.68-.1-.67-.15a1.62,1.62,0,0,1,.68,0A1.47,1.47,0,0,1,693,430.23Z" style="fill:#263238"></path><path d="M693.19,429s-.24.13-.55.19-.58.07-.59,0,.24-.13.56-.19S693.18,428.94,693.19,429Z" style="fill:#263238"></path><path d="M692.59,427.63a1.77,1.77,0,0,1-.37.63c-.24.32-.46.56-.5.53a1.77,1.77,0,0,1,.37-.63C692.33,427.84,692.55,427.61,692.59,427.63Z" style="fill:#263238"></path><path d="M692,426.88s0,.39-.3.78-.56.63-.59.6a4.74,4.74,0,0,1,.45-.69A6.91,6.91,0,0,1,692,426.88Z" style="fill:#263238"></path><path d="M691.74,429.87a2.45,2.45,0,0,1-.54.7,4.93,4.93,0,0,1-.74.63,2.63,2.63,0,0,1-.5.29.49.49,0,0,1-.36,0,.37.37,0,0,1-.2-.32,1.64,1.64,0,0,1,2.25-1.18c.14.06.21.12.2.13A2.27,2.27,0,0,0,691,430a1.54,1.54,0,0,0-.85.3,1.35,1.35,0,0,0-.59.88c0,.18.16.24.33.17a2.4,2.4,0,0,0,.47-.27,6.58,6.58,0,0,0,.75-.58C691.51,430.12,691.72,429.86,691.74,429.87Z" style="fill:#263238"></path><path d="M691.64,430.08a.86.86,0,0,1-.55-.29,1.33,1.33,0,0,1-.37-.59.88.88,0,0,1,.09-.86.37.37,0,0,1,.49,0,1,1,0,0,1,.22.36,2.38,2.38,0,0,1,.17.66,1.22,1.22,0,0,1,0,.62s0-.23-.09-.6a3.38,3.38,0,0,0-.2-.62c-.07-.21-.29-.48-.46-.32a.78.78,0,0,0,0,.69,1.38,1.38,0,0,0,.3.55A2.68,2.68,0,0,0,691.64,430.08Z" style="fill:#263238"></path><path d="M700,417.65s-.27.29-.59.83a4.54,4.54,0,0,0-.63,2.33,4.46,4.46,0,0,0,.72,2.29c.34.53.65.79.62.81a1.1,1.1,0,0,1-.22-.17,4,4,0,0,1-.5-.57,4.34,4.34,0,0,1-.78-2.36,4.21,4.21,0,0,1,.69-2.39,3,3,0,0,1,.47-.59C699.88,417.7,700,417.64,700,417.65Z" style="fill:#263238"></path><path d="M694.53,415.3a22.83,22.83,0,0,1,2.33,1.63,21.35,21.35,0,0,1,2.22,1.76s-1.06-.7-2.32-1.63A25.83,25.83,0,0,1,694.53,415.3Z" style="fill:#263238"></path><path d="M698,424.54a7.92,7.92,0,0,1-1.06,1.72,7.23,7.23,0,0,1-1.36,1.5s.56-.71,1.22-1.6S698,424.51,698,424.54Z" style="fill:#263238"></path><path d="M699.66,422.38c.05,0,.11.18.22.38s.22.35.19.38-.22-.07-.34-.3S699.62,422.39,699.66,422.38Z" style="fill:#263238"></path><path d="M699.27,420.8c.05,0,.11.16.14.36s0,.37,0,.37-.1-.15-.13-.35S699.23,420.81,699.27,420.8Z" style="fill:#263238"></path><path d="M699.7,419.29s-.09.18-.15.39-.07.39-.12.39-.13-.19,0-.44S699.67,419.26,699.7,419.29Z" style="fill:#263238"></path><path d="M700.11,418.3s0,.12,0,.24-.1.2-.15.19-.05-.12,0-.24S700.06,418.29,700.11,418.3Z" style="fill:#263238"></path><g style="opacity:0.30000000000000004"><polygon points="699.66 417.44 691.11 428.26 689.8 427.23 699.03 416.82 699.66 417.44"></polygon></g><path d="M646.91,450.58l-.93-7.31,13.68-1.82,1.47,10.68-.84.17c-3.75.71-19.1,3.36-21.73,2.93C635.63,454.75,646.91,450.58,646.91,450.58Z" style="fill:#CADBC2"></path><g style="opacity:0.4"><path d="M641.43,452.82s-3.92,1.72-3.32,2.32,16.21-1.49,23-3l-.06-.3-18.2,2.59S642.23,452.75,641.43,452.82Z" style="fill:#fff"></path></g><path d="M661.28,451.79l-.23.06-.67.13-2.47.44c-2.09.35-5,.81-8.19,1.24s-6.12.76-8.23,1l-2.5.23-.68.05h-.24l.24,0,.67-.08,2.5-.28c2.1-.24,5-.58,8.21-1s6.1-.87,8.2-1.2l2.48-.39.67-.1A.87.87,0,0,1,661.28,451.79Z" style="fill:#263238"></path><path d="M642.9,454.63a6.2,6.2,0,0,0-.62-1.12,5.75,5.75,0,0,0-1-.84,1.88,1.88,0,0,1,1.11.73A1.84,1.84,0,0,1,642.9,454.63Z" style="fill:#263238"></path><path d="M646.66,452.05a1.63,1.63,0,0,1-.5-.47c-.24-.29-.41-.55-.37-.58s.26.18.5.47S646.7,452,646.66,452.05Z" style="fill:#263238"></path><path d="M647.69,451.31s-.26-.08-.52-.26-.46-.35-.43-.39.26.08.52.26S647.72,451.27,647.69,451.31Z" style="fill:#263238"></path><path d="M648.22,449.93a1.64,1.64,0,0,1-.7.18,1.53,1.53,0,0,1-.73,0,1.72,1.72,0,0,1,.71-.18A1.49,1.49,0,0,1,648.22,449.93Z" style="fill:#263238"></path><path d="M648.34,449a1.37,1.37,0,0,1-.77.34,1.29,1.29,0,0,1-.83,0,4,4,0,0,1,.8-.16A5.44,5.44,0,0,1,648.34,449Z" style="fill:#263238"></path><path d="M646,450.91a2.49,2.49,0,0,1-.88.12,5,5,0,0,1-1-.09,2.15,2.15,0,0,1-.57-.14.51.51,0,0,1-.25-.25.34.34,0,0,1,.08-.37,1.66,1.66,0,0,1,2.43.76.5.5,0,0,1,.05.23,2.74,2.74,0,0,0-.5-.7,1.61,1.61,0,0,0-.82-.38,1.35,1.35,0,0,0-1,.21c-.13.12-.05.28.11.35a3.18,3.18,0,0,0,.53.14,5.79,5.79,0,0,0,.93.12C645.7,450.93,646,450.89,646,450.91Z" style="fill:#263238"></path><path d="M645.82,451a.9.9,0,0,1-.18-.6,1.32,1.32,0,0,1,.15-.67.89.89,0,0,1,.67-.55.36.36,0,0,1,.33.37,1,1,0,0,1-.1.41,2.88,2.88,0,0,1-.34.59c-.24.31-.45.44-.46.42s.15-.18.36-.49a3.33,3.33,0,0,0,.3-.57c.09-.21.13-.55-.09-.56s-.42.26-.53.45a1.36,1.36,0,0,0-.18.6A3.08,3.08,0,0,0,645.82,451Z" style="fill:#263238"></path><path d="M660.5,448.09s-.4,0-1,.17a4.43,4.43,0,0,0-2.08,1.2,4.51,4.51,0,0,0-1.12,2.13c-.13.62-.09,1-.13,1a.94.94,0,0,1,0-.27,3.75,3.75,0,0,1,0-.76,4.17,4.17,0,0,1,3.29-3.43,4.07,4.07,0,0,1,.75-.08A.71.71,0,0,1,660.5,448.09Z" style="fill:#263238"></path><path d="M658.32,442.58a50.34,50.34,0,0,1,.82,5.61,26.78,26.78,0,0,1-.49-2.79A22.52,22.52,0,0,1,658.32,442.58Z" style="fill:#263238"></path><path d="M654.25,451.58a7.8,7.8,0,0,1-2,.47,7.33,7.33,0,0,1-2,.1s.9-.11,2-.27S654.24,451.53,654.25,451.58Z" style="fill:#263238"></path><path d="M656.93,451.22s0,.2-.11.41-.09.41-.13.41-.1-.2,0-.45S656.9,451.19,656.93,451.22Z" style="fill:#263238"></path><path d="M657.78,449.83s0,.18-.16.34-.25.27-.29.24,0-.18.16-.34S657.74,449.8,657.78,449.83Z" style="fill:#263238"></path><path d="M659.15,449.06s-.19.07-.38.17-.32.22-.36.19.05-.23.28-.34S659.15,449,659.15,449.06Z" style="fill:#263238"></path><path d="M660.14,448.65s0,.12-.16.18-.21.07-.23,0,0-.12.15-.18S660.12,448.61,660.14,448.65Z" style="fill:#263238"></path><g style="opacity:0.30000000000000004"><polygon points="660.43 447.72 646.74 449.32 646.54 447.67 660.28 445.93 660.43 447.72"></polygon></g><path d="M666.11,229.94a15.33,15.33,0,0,1,11.73,4.25l2.82,13.9-4.83,19.48c-1.42,5.7,2.73,13.66,3.84,23l-38.16,6.71-.11-22.87-4-12.17-6.28,4.07-13.41-15.54,12.44-9.91a35.3,35.3,0,0,1,22.15-9.92" style="fill:#CADBC2"></path><path d="M641.4,249.26c0,.08-.83.38-2,1.25a9,9,0,0,0-3.08,4.49,8.83,8.83,0,0,0,.27,5.44c.5,1.34,1.08,2.05,1,2.1a4.62,4.62,0,0,1-1.36-2,8.35,8.35,0,0,1,3-10.36A4.73,4.73,0,0,1,641.4,249.26Z" style="fill:#263238"></path><path d="M651.16,230.82a10.33,10.33,0,0,0,1,3.63,8.13,8.13,0,0,0,2.65,3,7.76,7.76,0,0,0,9.19-.58,8.05,8.05,0,0,0,2.25-3.31,10.47,10.47,0,0,0,.5-3.72,3,3,0,0,1,.2,1,7.68,7.68,0,0,1-.35,2.82,8.1,8.1,0,0,1-2.29,3.55,8.05,8.05,0,0,1-9.77.61,8.16,8.16,0,0,1-2.71-3.24,7.35,7.35,0,0,1-.69-2.75A2.43,2.43,0,0,1,651.16,230.82Z" style="fill:#263238"></path><path d="M614.53,281.68c-1.07-1.49-8.55-2.76-7.91-4,.82-1.64,7.74,1.68,8.35,1.92s.94-.64.38-.83c-.8-.26-9.14-3.26-8.34-4.87.44-.89,2,.1,2,.1s7.61,3.38,8,2.61-4.05-2.93-5.59-3.54-1.86-1.58-1.05-2c.55-.31,5.29,1.46,6.79,2.11s5.61,2.48,4.28-.09l-.06-.12c-1.37-2.49-1.6-4.86-1.2-5.59a1,1,0,0,1,1.75.23.94.94,0,0,1,.11.39c0,.07,0,.15,0,.22a14.06,14.06,0,0,0,1.11,2.69,7.93,7.93,0,0,0,1.56,2.08c.74.69,1.4,1.26,2,1.72,5,.9,19.26,2.92,31.75-.27,2.26-.58,10.26-25.89,10.26-25.89l15.27,7.43c-.62,3-3.37,10.5-7.35,23.18-6.51,20.7-54,6.18-54,6.18h0l-.42-.05a94.75,94.75,0,0,1-10-1.87c-4.06-1.19-4-1.56-3.76-2C609,280.13,615.61,283.18,614.53,281.68Z" style="fill:#ffbe9d"></path><path d="M659.55,270a20,20,0,0,1,.91-3.09l2.37-7.37c.86-2.82,1.64-5.37,2.27-7.41a21.67,21.67,0,0,1,1-3,19.9,19.9,0,0,1-.66,3.15c-.49,1.93-1.22,4.57-2.13,7.46s-1.82,5.49-2.53,7.34A19.59,19.59,0,0,1,659.55,270Z" style="fill:#263238"></path><path d="M673.61,231.36s10.48,1.87,10.9,19A66.79,66.79,0,0,1,678,280.53l-18.45-9.66a114,114,0,0,0,9.28-26.09l4.77-13.43Z" style="fill:#CADBC2"></path><path d="M659.17,270.62A21.06,21.06,0,0,1,661.9,272c1.67.88,4,2.09,6.56,3.35s5,2.31,6.7,3.07a20.09,20.09,0,0,1,2.77,1.29,16.31,16.31,0,0,1-2.91-.95c-1.77-.67-4.19-1.69-6.79-2.94s-4.89-2.53-6.51-3.5A15.88,15.88,0,0,1,659.17,270.62Z" style="fill:#263238"></path><path d="M684.12,259.05a16.54,16.54,0,0,1-.4,3.09c-.34,1.89-.91,4.49-1.68,7.32s-1.58,5.37-2.19,7.19a18,18,0,0,1-1.11,2.91,18.27,18.27,0,0,1,.76-3l2-7.22c.77-2.82,1.4-5.39,1.83-7.26A21.45,21.45,0,0,1,684.12,259.05Z" style="fill:#263238"></path><path d="M670.59,198.06a5.51,5.51,0,0,1,3.43,6,6.13,6.13,0,0,1,2.84,11.25,6.53,6.53,0,0,1-9.28,9,6.32,6.32,0,0,1-6.42,3.24,10.13,10.13,0,0,1-6.44-3.83,7.16,7.16,0,0,1-12.26-7,4.46,4.46,0,0,1-3.89-4.09,6,6,0,0,1,2.65-5.25s-5-8.32,4.47-7.73" style="fill:#263238"></path><path d="M666.77,231.66,668,202.49l-11.7-8.86-10.63,5.2s-.35,13.35,0,19.14,6.19,6.4,6.19,6.4-.17,3.2-.35,6.56a7.63,7.63,0,0,0,7.08,8h0A7.62,7.62,0,0,0,666.77,231.66Z" style="fill:#ffbe9d"></path><path d="M646.87,208.35a.74.74,0,1,0,.74-.74A.74.74,0,0,0,646.87,208.35Z" style="fill:#263238"></path><path d="M646.15,207.54c.1.1.65-.36,1.44-.41s1.4.34,1.48.24-.06-.23-.32-.41a1.94,1.94,0,0,0-1.19-.31,2,2,0,0,0-1.14.45C646.18,207.32,646.11,207.5,646.15,207.54Z" style="fill:#263238"></path><path d="M655.45,208.35a.75.75,0,1,0,.75-.74A.75.75,0,0,0,655.45,208.35Z" style="fill:#263238"></path><path d="M655,207.75c.1.1.65-.37,1.44-.41s1.4.34,1.48.23,0-.22-.32-.4a1.92,1.92,0,0,0-1.19-.31,2,2,0,0,0-1.14.45C655,207.52,655,207.71,655,207.75Z" style="fill:#263238"></path><path d="M651.9,224.37a14.38,14.38,0,0,0,7.67-2.59s-1.94,4.26-7.75,4Z" style="fill:#eb996e"></path><path d="M652.12,214.49a5.88,5.88,0,0,0-1.31-.16c-.2,0-.4,0-.44-.19a1.1,1.1,0,0,1,.11-.65c.17-.52.35-1.07.55-1.65.38-1.18.7-2.25.92-3a5.75,5.75,0,0,0,.3-1.28,4.76,4.76,0,0,0-.51,1.21c-.28.77-.64,1.82-1,3l-.52,1.66a1.32,1.32,0,0,0-.08.84.5.5,0,0,0,.34.28,1,1,0,0,0,.34,0A5.33,5.33,0,0,0,652.12,214.49Z" style="fill:#263238"></path><path d="M648.21,193.21A9.7,9.7,0,0,0,647,193a2.35,2.35,0,0,0-1.83,3.89c.47.55.94.7.91.78s-.55,0-1.17-.53a2.65,2.65,0,0,1,.68-4.29,2.61,2.61,0,0,1,1.43-.21C647.88,192.76,648.25,193.17,648.21,193.21Z" style="fill:#263238"></path><path d="M639.12,217.61s.08-.17.07-.45a.83.83,0,0,0-.66-.79,1,1,0,0,0-1.11.9,1.53,1.53,0,0,0,1.13,1.53,2.16,2.16,0,0,0,2-.4,2.59,2.59,0,0,0,.88-1.53,1.39,1.39,0,0,0-.15-1.15c-.17-.23-.35-.26-.34-.3s.21-.08.49.16a1.54,1.54,0,0,1,.37,1.34,2.93,2.93,0,0,1-.93,1.85,2.6,2.6,0,0,1-2.49.52,2,2,0,0,1-1.44-2.08,1.46,1.46,0,0,1,.63-1,1.33,1.33,0,0,1,1-.17,1.06,1.06,0,0,1,.68.54,1,1,0,0,1,.1.62C639.33,217.53,639.14,217.64,639.12,217.61Z" style="fill:#263238"></path><path d="M676.3,212.53a3,3,0,0,0,.62.8,2,2,0,0,0,1.05.46,2.26,2.26,0,0,0,1.46-.34,3.68,3.68,0,0,0,1.5-3.52,4.8,4.8,0,0,0-.71-2.26,3,3,0,0,0-2-1.36,2.39,2.39,0,0,0-2.17.6l-1.27,1.31.86-1.6a6.69,6.69,0,0,0,.93-4,3.21,3.21,0,0,0-1.76-2.54,2.58,2.58,0,0,0-2.09,0c-.46.23-.63.49-.67.46s.11-.31.58-.61a2.64,2.64,0,0,1,2.3-.2,3.52,3.52,0,0,1,2.08,2.78,7,7,0,0,1-.92,4.27l-.41-.29a2.94,2.94,0,0,1,2.63-.77,3.47,3.47,0,0,1,2.33,1.61,5.21,5.21,0,0,1,.77,2.5,5,5,0,0,1-.41,2.33,3.28,3.28,0,0,1-1.39,1.54,2.5,2.5,0,0,1-1.69.31,2.25,2.25,0,0,1-1.14-.6C676.27,213,676.28,212.52,676.3,212.53Z" style="fill:#263238"></path><path d="M670.52,208.65a11.2,11.2,0,0,0,.64-5.88,8.92,8.92,0,0,0-1.7-4.59,4.46,4.46,0,0,0-4.39-1.68,5.33,5.33,0,0,0-9.45-3.28,7.73,7.73,0,0,0-4.67-2.06,5.37,5.37,0,0,0-4.56,2,4.13,4.13,0,0,0-.11,4.84,3.24,3.24,0,1,0,4.09,4.18,3.1,3.1,0,0,0,3.39,2.42,4.49,4.49,0,0,0,3.44-2.75,4.72,4.72,0,0,0,4.07,4.53,4.28,4.28,0,0,0,1.63-.16,3.86,3.86,0,0,0,1.19,6.17,2.57,2.57,0,0,0-1.64,2,5.37,5.37,0,0,0,.24,2.66c.74,2.48,2.49,6.33,4.89,7.3s5.45-1.29,6.7-3.56Z" style="fill:#263238"></path><path d="M655,215.48a1.54,1.54,0,0,0-1.18-.37,1.53,1.53,0,0,0-1.06.64,1.1,1.1,0,0,0-.22.76,1.17,1.17,0,0,0,.56.83,1.61,1.61,0,0,0,1.46.17,1.4,1.4,0,0,0,.88-1.15,1,1,0,0,0-.69-1.05" style="fill:#eb996e"></path><path d="M655.43,214.89c.13.05-.18,1-1.12,1.6s-1.91.58-1.9.44.8-.32,1.61-.88S655.3,214.82,655.43,214.89Z" style="fill:#263238"></path><path d="M643.32,296.94s-14.37,73.14-12.8,76.61,54.78,60,54.78,60l16-19.41s-44.28-49.42-44-50.75,15.69-71.82,15.69-71.82Z" style="fill:#263238"></path><path d="M681.41,430.89A4.06,4.06,0,0,1,682,430l1.7-2.26c1.44-1.9,3.44-4.53,5.59-7.46s4.07-5.62,5.45-7.57c.65-.89,1.2-1.66,1.65-2.29a4.21,4.21,0,0,1,.66-.81,3.87,3.87,0,0,1-.49.92c-.34.57-.86,1.39-1.51,2.39-1.31,2-3.18,4.73-5.34,7.67s-4.2,5.54-5.72,7.38c-.76.92-1.39,1.66-1.84,2.16A3.83,3.83,0,0,1,681.41,430.89Z" style="fill:#455a64"></path><path d="M647.61,295.57l-2.06.53.9,11.91c-3.62,19.56-10.86,60.87-9.93,73.4,1.23,16.62,4.14,67.53,4.14,67.53l23.78-3.65-1.78-61.5,5.12-25.18L681.39,313a31.39,31.39,0,0,0-2.14-23.27L678,287.26" style="fill:#263238"></path><path d="M663.86,293.71c.09,0,.14.8.57,2a9.11,9.11,0,0,0,2.83,4,9,9,0,0,0,3.92,1.75,12.07,12.07,0,0,0,2.46.16h0c.17,0,.24.07.24.1s-.09,0-.25,0h0a6.78,6.78,0,0,1-2.53.11,8.35,8.35,0,0,1-7-6A4.39,4.39,0,0,1,663.86,293.71Z" style="fill:#455a64"></path><path d="M640.24,443.41a3.91,3.91,0,0,1,.91-.3c.59-.17,1.45-.38,2.52-.62,2.13-.49,5.1-1.1,8.4-1.64s6.3-.92,8.48-1.14c1.09-.11,2-.18,2.58-.21a3.78,3.78,0,0,1,1,0,24.39,24.39,0,0,1-3.5.59c-2.16.31-5.15.75-8.44,1.29s-6.26,1.08-8.41,1.48A28.07,28.07,0,0,1,640.24,443.41Z" style="fill:#455a64"></path><path d="M646.45,308a3.3,3.3,0,0,1-.09.73c-.09.53-.21,1.22-.35,2.09-.34,1.86-.81,4.46-1.39,7.65-1.17,6.47-2.78,15.39-4.25,25.3s-2.43,18.93-3,25.48c-.27,3.27-.46,5.92-.58,7.75-.07.88-.12,1.58-.16,2.11a3.54,3.54,0,0,1-.09.73,5.18,5.18,0,0,1,0-.74c0-.53,0-1.23.06-2.11,0-1.84.19-4.49.42-7.77.44-6.56,1.35-15.6,2.82-25.52s3.14-18.85,4.4-25.3c.63-3.22,1.16-5.82,1.55-7.62.18-.86.34-1.54.45-2.07A4,4,0,0,1,646.45,308Z" style="fill:#455a64"></path><path d="M668.06,357.69a2.58,2.58,0,0,1-.08.53c-.09.4-.19.89-.32,1.5-.29,1.37-.68,3.23-1.15,5.5-1,4.66-2.2,11.11-3.52,18.23,0,.14,0,.27-.07.39l-.26-.31a.3.3,0,0,1,.21.1.11.11,0,0,1,0,.06l0,.08a.61.61,0,0,1,0,.11l0,.19,0,.34.06.67.09,1.32q.06,1.31.12,2.58c0,1.68.1,3.31.15,4.86.06,3.08.12,5.86.16,8.22s0,4.16.05,5.54c0,.6,0,1.1,0,1.5a2,2,0,0,1,0,.53,1.81,1.81,0,0,1-.06-.52c0-.41-.05-.9-.08-1.51-.06-1.38-.13-3.25-.21-5.53-.16-4.73-.38-11.15-.62-18.26l-.26-.06.08-.39c1.32-7.13,2.63-13.57,3.67-18.21.52-2.32,1-4.2,1.31-5.48.17-.65.32-1.14.42-1.48A1.81,1.81,0,0,1,668.06,357.69Z" style="fill:#455a64"></path></g><g id="freepik--character-1--inject-514"><path d="M482.13,213.24a10.84,10.84,0,0,1-.15,3,6.87,6.87,0,0,1-.76,2.29,29.36,29.36,0,0,1-1.88,3.1s-25.59,13.84-30.29,15.29-26.31-8-26.31-8a68.46,68.46,0,0,1-8,15.32s19.29,7.12,34.22,8.35c9.5.79,38.45-22.38,38.48-22.4a88.78,88.78,0,0,0,8.69-3.82c3.88-2.16,3.69-2.52,3.36-2.92-.89-1.1-7,3.55-6.24,1.79s8.1-4.82,7.13-5.93c-1.27-1.44-7.54,3.54-8.11,3.93s-1.13-.42-.61-.74c.76-.46,8.58-5.46,7.35-6.89-.68-.79-2,.56-2,.56s-7,5.22-7.53,4.53,3.42-3.91,4.84-4.89,1.52-2,.57-2.31c-.65-.18-5.07,2.74-6.46,3.74s-5.13,3.84-4.42.94.17-5.39-.44-6S482,212.33,482.13,213.24Z" style="fill:#b78876"></path><polygon points="597.83 293.09 431.92 250.3 451.97 174.26 617.8 217.32 597.83 293.09" style="fill:#e0e0e0"></polygon><path d="M593.65,246.05l-.35-.08-1-.25-3.92-1-14.44-3.91-47.59-12.92c-18.6-5-35.45-9.53-47.66-12.73l-14.46-3.79-3.93-1-1-.28-.34-.11a1.56,1.56,0,0,1,.35.06l1,.23,4,.95c3.43.82,8.38,2.07,14.5,3.62,12.24,3.12,29.1,7.56,47.7,12.59S561.86,237,574,240.41l14.39,4.07,3.9,1.13,1,.31A1.61,1.61,0,0,1,593.65,246.05Z" style="fill:#263238"></path><path d="M588.53,260.08l-.35-.07-1-.26-3.93-1-14.43-3.91L521.2,241.88c-18.6-5-35.45-9.52-47.66-12.73l-14.46-3.78-3.93-1-1-.28a1.38,1.38,0,0,1-.34-.12,3,3,0,0,1,.35.06l1,.24,4,.94c3.43.82,8.38,2.07,14.5,3.62,12.24,3.12,29.1,7.57,47.7,12.59s35.41,9.67,47.56,13.07l14.39,4.06,3.9,1.14,1,.31A1.38,1.38,0,0,1,588.53,260.08Z" style="fill:#263238"></path><path d="M501.74,251.56a1.73,1.73,0,0,1-.52-.09l-1.47-.34-5.41-1.37-17.84-4.71-17.83-4.85-5.4-1.53-1.46-.44a2.22,2.22,0,0,1-.51-.19,1.79,1.79,0,0,1,.51.08l1.48.35,5.41,1.37,17.84,4.7,17.82,4.86,5.4,1.53,1.47.44A2.5,2.5,0,0,1,501.74,251.56Z" style="fill:#263238"></path><path d="M531.83,215.92a3.72,3.72,0,0,1-.74-.14l-2.1-.5-7.69-1.94L496,206.77l-25.29-6.72L463,198l-2.07-.6a3.87,3.87,0,0,1-.72-.24,4.76,4.76,0,0,1,.74.14l2.1.5,7.69,1.94,25.33,6.58L521.4,213l7.65,2.09,2.07.6A3.55,3.55,0,0,1,531.83,215.92Z" style="fill:#263238"></path><path d="M341.68,436.92l6-5.59-10.4-11.39L328.39,428l.6.75c2.69,3.3,13.94,16.6,16.5,18.12C348.34,448.59,341.68,436.92,341.68,436.92Z" style="fill:#CADBC2"></path><g style="opacity:0.4"><path d="M344.76,442.78s2.12,4.28,1.18,4.37S333.12,434.23,328.39,428l.27-.22,13.72,15.3S344.13,442.14,344.76,442.78Z" style="fill:#fff"></path></g><path d="M328.5,427.63a2,2,0,0,0,.16.21l.48.6,1.8,2.15c1.53,1.81,3.69,4.28,6.12,7s4.69,5,6.35,6.74l2,2,.54.54.2.17a1.13,1.13,0,0,0-.17-.2l-.52-.56-1.93-2c-1.64-1.72-3.88-4.1-6.31-6.78s-4.6-5.12-6.16-6.91l-1.84-2.11-.51-.57Z" style="fill:#263238"></path><path d="M342.2,443.27a6.82,6.82,0,0,1,1.34-.52,6.18,6.18,0,0,1,1.44,0,2.07,2.07,0,0,0-1.48-.17A2,2,0,0,0,342.2,443.27Z" style="fill:#263238"></path><path d="M340.84,438.35a1.66,1.66,0,0,0,.76,0c.41-.07.74-.17.73-.22a1.52,1.52,0,0,0-.76,0C341.15,438.2,340.83,438.3,340.84,438.35Z" style="fill:#263238"></path><path d="M340.48,437s.28.12.64.16.64,0,.65,0-.28-.12-.64-.16S340.49,436.93,340.48,437Z" style="fill:#263238"></path><path d="M341,435.42s.17.33.46.66.57.57.61.54-.17-.33-.47-.66S341.06,435.38,341,435.42Z" style="fill:#263238"></path><path d="M341.6,434.52a1.54,1.54,0,0,0,.41.84c.33.42.69.65.72.61s-.26-.33-.57-.72S341.65,434.5,341.6,434.52Z" style="fill:#263238"></path><path d="M342.18,437.83a3.33,3.33,0,0,0,.68.73,5.58,5.58,0,0,0,.88.62,2.7,2.7,0,0,0,.59.28.49.49,0,0,0,.39,0,.38.38,0,0,0,.19-.38,1.81,1.81,0,0,0-1.9-1.3,1.88,1.88,0,0,0-.71.21.63.63,0,0,0-.22.16,3,3,0,0,1,.93-.24,1.78,1.78,0,0,1,1,.26,1.57,1.57,0,0,1,.74.93c0,.19-.16.27-.36.21a3.35,3.35,0,0,1-.55-.25,6.1,6.1,0,0,1-.88-.58C342.46,438.09,342.21,437.81,342.18,437.83Z" style="fill:#263238"></path><path d="M342.32,438.05s.29,0,.58-.38a1.56,1.56,0,0,0,.36-.69,1,1,0,0,0-.19-1,.39.39,0,0,0-.54.09,1,1,0,0,0-.21.42,2.81,2.81,0,0,0-.13.75,1.25,1.25,0,0,0,.09.69s0-.27,0-.68a3.71,3.71,0,0,1,.16-.71c.06-.24.28-.56.48-.41a.92.92,0,0,1,.13.77,1.58,1.58,0,0,1-.29.64C342.55,437.92,342.3,438,342.32,438.05Z" style="fill:#263238"></path><path d="M331.83,425s.33.3.74.87a4.93,4.93,0,0,1,.92,2.52,5,5,0,0,1-.57,2.63c-.33.62-.65.94-.62,1s.09-.06.23-.21a3.74,3.74,0,0,0,.5-.68,4.68,4.68,0,0,0-.35-5.3,4.57,4.57,0,0,0-.59-.62C331.93,425.07,331.84,425,331.83,425Z" style="fill:#263238"></path><path d="M337.65,421.87a26.79,26.79,0,0,0-2.43,2,26.38,26.38,0,0,0-2.3,2.17,27.61,27.61,0,0,0,2.43-2A27.3,27.3,0,0,0,337.65,421.87Z" style="fill:#263238"></path><path d="M334.67,432.5a8.46,8.46,0,0,0,1.35,1.81,8.8,8.8,0,0,0,1.66,1.55s-.69-.75-1.52-1.67S334.71,432.47,334.67,432.5Z" style="fill:#263238"></path><path d="M332.63,430.26c-.05,0-.1.21-.2.44s-.21.41-.18.45.24-.11.35-.38S332.68,430.26,332.63,430.26Z" style="fill:#263238"></path><path d="M332.91,428.46c-.05,0-.1.18-.11.41s0,.41.07.42.1-.18.12-.41S333,428.47,332.91,428.46Z" style="fill:#263238"></path><path d="M332.29,426.82c0,.05.11.2.21.42s.11.42.16.43.13-.24,0-.51S332.32,426.78,332.29,426.82Z" style="fill:#263238"></path><path d="M331.74,425.76c-.05,0-.05.14,0,.26s.13.22.18.2,0-.14,0-.26S331.79,425.74,331.74,425.76Z" style="fill:#263238"></path><g style="opacity:0.30000000000000004"><polygon points="332.15 424.75 342.73 435.97 344.08 434.7 333.57 423.33 332.15 424.75"></polygon></g><path d="M459.37,446.05,456,438.53l-14.13,6.19,4.79,11.06.91-.33c4-1.49,20.2-7.87,22.46-9.81C472.56,443.49,459.37,446.05,459.37,446.05Z" style="fill:#CADBC2"></path><g style="opacity:0.4"><path d="M465.9,445s4.74-.63,4.52.29-16.36,8-23.75,10.48l-.11-.33,18.89-8.08S465.1,445.4,465.9,445Z" style="fill:#fff"></path></g><path d="M446.33,455.54a1,1,0,0,0,.26-.08l.71-.26,2.62-1c2.2-.87,5.23-2.11,8.55-3.56s6.28-2.82,8.42-3.85l2.52-1.23.68-.35c.16-.08.24-.12.23-.13l-.24.1-.7.31-2.55,1.18c-2.15,1-5.12,2.35-8.44,3.8s-6.33,2.71-8.52,3.61l-2.59,1.07-.71.3A.86.86,0,0,0,446.33,455.54Z" style="fill:#263238"></path><path d="M465.54,447.6a6.73,6.73,0,0,1-.05-1.44,6.49,6.49,0,0,1,.44-1.37,2.07,2.07,0,0,0-.63,1.34A2.19,2.19,0,0,0,465.54,447.6Z" style="fill:#263238"></path><path d="M460.45,447.3c.05,0,.14-.32.21-.73a1.7,1.7,0,0,0,0-.77c-.05,0-.15.32-.21.74A1.65,1.65,0,0,0,460.45,447.3Z" style="fill:#263238"></path><path d="M459,447.2s.2-.22.35-.55.23-.61.18-.63-.2.23-.35.55S459,447.18,459,447.2Z" style="fill:#263238"></path><path d="M457.73,446.18a1.7,1.7,0,0,0,.78-.23c.41-.17.72-.35.7-.4a2,2,0,0,0-.77.23A2.09,2.09,0,0,0,457.73,446.18Z" style="fill:#263238"></path><path d="M457.07,445.35a1.51,1.51,0,0,0,.93-.12,1.58,1.58,0,0,0,.8-.48,4.37,4.37,0,0,0-.86.3A6,6,0,0,0,457.07,445.35Z" style="fill:#263238"></path><path d="M460.39,445.86a2.94,2.94,0,0,0,.9-.4,6,6,0,0,0,.88-.64,2.9,2.9,0,0,0,.45-.47.53.53,0,0,0,.1-.38.39.39,0,0,0-.3-.3,1.81,1.81,0,0,0-1.84,1.39,1.69,1.69,0,0,0,0,.73.64.64,0,0,0,.08.26,3,3,0,0,1,.08-1,1.78,1.78,0,0,1,.55-.84,1.54,1.54,0,0,1,1.12-.4c.19,0,.2.24.09.4a2.92,2.92,0,0,1-.42.44,7,7,0,0,1-.83.66C460.72,445.68,460.37,445.83,460.39,445.86Z" style="fill:#263238"></path><path d="M460.64,445.8a1,1,0,0,0-.17-.67,1.67,1.67,0,0,0-.54-.56,1,1,0,0,0-1-.13.4.4,0,0,0-.09.54,1,1,0,0,0,.33.34,2.61,2.61,0,0,0,.67.36,1.36,1.36,0,0,0,.68.14s-.25-.08-.63-.26a3.35,3.35,0,0,1-.62-.38c-.21-.13-.44-.44-.23-.58a.88.88,0,0,1,.76.12,1.62,1.62,0,0,1,.52.48A3.5,3.5,0,0,1,460.64,445.8Z" style="fill:#263238"></path><path d="M444.93,451.55s.39-.22,1.06-.42a4.82,4.82,0,0,1,5,1.33c.48.51.68.91.71.89a1,1,0,0,0-.12-.29,4.88,4.88,0,0,0-.49-.69A4.69,4.69,0,0,0,446,451a4.39,4.39,0,0,0-.77.36C445,451.47,444.92,451.54,444.93,451.55Z" style="fill:#263238"></path><path d="M443.82,445a26.68,26.68,0,0,0,1.15,3,26.1,26.1,0,0,0,1.32,2.88,55.9,55.9,0,0,0-2.47-5.84Z" style="fill:#263238"></path><path d="M452.92,451.26a8.53,8.53,0,0,0,2.16-.69,8.71,8.71,0,0,0,2-1.07c0-.05-.92.41-2.07.89S452.91,451.21,452.92,451.26Z" style="fill:#263238"></path><path d="M450.15,452.47s.16.16.35.34.32.33.37.31,0-.26-.24-.45S450.17,452.42,450.15,452.47Z" style="fill:#263238"></path><path d="M448.54,451.63c0,.05.14.16.35.24s.4.11.41.07-.13-.16-.34-.24S448.56,451.58,448.54,451.63Z" style="fill:#263238"></path><path d="M446.79,451.69s.21,0,.45-.06.44,0,.46,0-.18-.19-.47-.16S446.75,451.65,446.79,451.69Z" style="fill:#263238"></path><path d="M445.6,451.88c0,.05.12.08.25.08s.25,0,.25-.11-.12-.08-.25-.08S445.6,451.82,445.6,451.88Z" style="fill:#263238"></path><g style="opacity:0.30000000000000004"><polygon points="444.78 451.16 458.8 444.75 458.03 443.05 443.89 449.36 444.78 451.16"></polygon></g><path d="M375.54,192.22c.4-2.74-1.35-6.81-.61-9.31.23-.79-.64-1.54-.75-2.36a2.36,2.36,0,0,1,.74-2.24,1.34,1.34,0,0,1,2,.51,12.1,12.1,0,0,1,1.06-3.7,4,4,0,0,1,3-2.25,2.5,2.5,0,0,1,2.78,2.06,8.18,8.18,0,0,1,3.15-3.24,4.27,4.27,0,0,1,3.77-.47c1.2.54,1.87,2.23,1,3.24a9.05,9.05,0,0,1,2.63-1.8,3.05,3.05,0,0,1,3,.34,1.88,1.88,0,0,1,.08,2.8,12.15,12.15,0,0,1,3.35-1.08,4.22,4.22,0,0,1,3.32.85,2.59,2.59,0,0,1,.61,3.19,5.07,5.07,0,0,1-2.16,1.51,2.88,2.88,0,0,0-1.75,1.89c-.06.46.08.94,0,1.39a1.78,1.78,0,0,1-1.29,1.23,5.21,5.21,0,0,1-1.85.08c-3.13-.27-6.24-.78-9.38-.75a16.25,16.25,0,0,0-9,2.41" style="fill:#263238"></path><path d="M372.62,309s6.61,35,5.4,54.21-14.48,26.85-22.4,34.75c-7.55,7.55-24.89,22.53-24.89,22.53l15.54,16.74s49.19-35.47,54.18-58.32c3.83-17.55,5.33-48.57,5.33-48.57Z" style="fill:#263238"></path><path d="M373.34,282.76c-.48,0-5.83,15.76-.72,26.22.51,1,4.52,6.82,4.52,6.82,14.16,16.75,32.81,52.36,34.71,57.68,5.5,15.43,27.79,78.07,27.79,78.07l23.25-9.92-23.71-77.42-30.82-68.65Z" style="fill:#263238"></path><path d="M402.44,295.56a4.67,4.67,0,0,1,.3,2.23,8.54,8.54,0,0,1-6.5,8,4.65,4.65,0,0,1-2.24.15c0-.09.85-.1,2.14-.51a9.18,9.18,0,0,0,4.28-2.86,9.28,9.28,0,0,0,2-4.77C402.52,296.42,402.36,295.58,402.44,295.56Z" style="fill:#455a64"></path><polygon points="439.64 451.55 462.89 441.63 461.74 437.86 438.52 448.4 439.64 451.55" style="fill:#455a64"></polygon><path d="M384.47,227.59h0a8.14,8.14,0,0,0,8.76-7.8c.17-4.43.32-8.9.32-8.9s6.72-.63,7.21-7.27-.28-21.15-.28-21.15l.56-.83c-7.49-3.78-15.81-2.54-22.76,2.16l-1.45,2.76.13,33A8.13,8.13,0,0,0,384.47,227.59Z" style="fill:#b78876"></path><path d="M398.84,193.28a1,1,0,1,1,1.38-1.35,1,1,0,0,1,0,1.36A1,1,0,0,1,398.84,193.28Z" style="fill:#263238"></path><path d="M400.46,192.21c-.11.11-.73-.44-1.65-.5s-1.61.37-1.7.25.07-.26.37-.46a2.27,2.27,0,0,1,2.68.2C400.43,191.94,400.51,192.16,400.46,192.21Z" style="fill:#263238"></path><path d="M390.16,192.07a1,1,0,1,1-1.35.23A1,1,0,0,1,390.16,192.07Z" style="fill:#263238"></path><path d="M390.47,192.41c-.11.11-.73-.43-1.65-.49s-1.61.37-1.7.25.07-.26.37-.46a2.13,2.13,0,0,1,1.37-.34,2.27,2.27,0,0,1,1.31.53C390.44,192.15,390.53,192.37,390.47,192.41Z" style="fill:#263238"></path><path d="M393.72,199.53a4.08,4.08,0,0,1,1.5-.23c.24,0,.43-.05.46-.18a1.35,1.35,0,0,0-.13-.69l-.61-1.91a26,26,0,0,1-1.27-5,25.37,25.37,0,0,1,1.77,4.84c.2.66.38,1.29.57,1.91a1.55,1.55,0,0,1,.07,1,.63.63,0,0,1-.44.35,1.52,1.52,0,0,1-.41,0A4.52,4.52,0,0,1,393.72,199.53Z" style="fill:#263238"></path><path d="M390.68,200.35c.55.25,2.54,1.56,4.41,1.59a2.52,2.52,0,0,1-3,.82C390.1,201.91,390.68,200.35,390.68,200.35Z" style="fill:#fff"></path><path d="M393.57,210.79a15.53,15.53,0,0,1-8.52-3s1.76,4.91,8.43,4.72Z" style="fill:#a36957"></path><path d="M377,192a1,1,0,0,0-1-1c-1.24,0-3.27.46-3.46,3.88-.27,4.89,4.43,3.67,4.45,3.53S377,193.94,377,192Z" style="fill:#b78876"></path><path d="M375.93,196.52s-.09.06-.23.12a.9.9,0,0,1-.64,0,2.09,2.09,0,0,1-.87-1.94,2.88,2.88,0,0,1,.3-1.21,1,1,0,0,1,.68-.62.44.44,0,0,1,.49.26c.06.14,0,.24,0,.25s.11-.08.08-.28a.58.58,0,0,0-.18-.32.64.64,0,0,0-.46-.15,1.21,1.21,0,0,0-.93.71,2.83,2.83,0,0,0-.37,1.35,2.22,2.22,0,0,0,1.12,2.18.91.91,0,0,0,.79-.09C375.92,196.64,376,196.53,375.93,196.52Z" style="fill:#a36957"></path><path d="M363.79,249c.81,6.5,3,12.2,3.06,22.85l-.5,24.69L413,299.17,410.47,269l-1.68-25.7,10.42,2.7,4.35-17.37s-11-5.31-14.78-7c-12.37-5.62-12.3-3.31-14.44-3.58a28.29,28.29,0,0,1-17,0h0s-9.19-2.54-13.89,8.6C361,232.38,363.79,249,363.79,249Z" style="fill:#455a64"></path><path d="M366.79,221.19s.13,0,.37,0a4.62,4.62,0,0,1,1,.25,5.89,5.89,0,0,1,3.08,2.42,6.28,6.28,0,0,1,.46,5.73,6,6,0,0,0-.65,3.16c.22,1.08,1.24,1.82,2.15,2.71a4.59,4.59,0,0,1,1.12,1.59,4.65,4.65,0,0,1,.35,1.86,6.18,6.18,0,0,1-1.09,3.34,6.8,6.8,0,0,1-1.09,1.23,6.68,6.68,0,0,1-1.33.81,12.9,12.9,0,0,1-2.6.82,22.66,22.66,0,0,1-3.89.48,6.14,6.14,0,0,1-1.43,0,10.08,10.08,0,0,1,1.42-.16,29.62,29.62,0,0,0,3.82-.63c1.53-.42,3.57-.95,4.7-2.78a5.79,5.79,0,0,0,1-3.07,4,4,0,0,0-1.33-3.08c-.43-.43-.91-.83-1.34-1.3a3.6,3.6,0,0,1-.94-1.68,6.29,6.29,0,0,1,.7-3.43,5.83,5.83,0,0,0-3.16-7.79C367.3,221.28,366.78,221.24,366.79,221.19Z" style="fill:#fafafa"></path><path d="M421.38,226.25a1.67,1.67,0,0,1-.08.49,7.8,7.8,0,0,1-.48,1.35,9.3,9.3,0,0,1-3.44,3.95,9.15,9.15,0,0,1-7.61,1.05,9.34,9.34,0,0,1-4-2.36c-1.15-1.11-2.14-2.5-3.61-3.12a3.59,3.59,0,0,0-2.29-.12,12.13,12.13,0,0,0-2.2.87,9.76,9.76,0,0,1-4.5,1.14,8.83,8.83,0,0,1-6.94-3.27,9,9,0,0,1-1.94-4.86,7.18,7.18,0,0,1,0-1.44,2.25,2.25,0,0,1,.09-.49c.06,0-.07.69.09,1.91a9.19,9.19,0,0,0,2,4.65,8.55,8.55,0,0,0,6.66,3,9.27,9.27,0,0,0,4.28-1.12,12.57,12.57,0,0,1,2.29-.91,4.11,4.11,0,0,1,2.61.13c1.68.72,2.66,2.17,3.78,3.24a9.05,9.05,0,0,0,11.07,1.37,9.56,9.56,0,0,0,3.45-3.73C421.2,226.91,421.33,226.23,421.38,226.25Z" style="fill:#fafafa"></path><path d="M418.82,245.27a11.67,11.67,0,0,0-2.25-3.71,7,7,0,0,0-4-2.13,6.06,6.06,0,0,0-5.1,1.84,4.68,4.68,0,0,0-1.23,2.57,8.11,8.11,0,0,1-.69,2.82,4.91,4.91,0,0,1-2,1.78c-.71.39-1.41.68-2,1a5,5,0,0,0-2.28,2.09,4.49,4.49,0,0,0-.28,1.12.84.84,0,0,1-.06-.31,2.46,2.46,0,0,1,.15-.89,4.94,4.94,0,0,1,2.29-2.33c.61-.35,1.29-.65,2-1.05a4.46,4.46,0,0,0,1.77-1.63,7.88,7.88,0,0,0,.6-2.67,5.26,5.26,0,0,1,1.35-2.84,6.47,6.47,0,0,1,5.56-2,7.22,7.22,0,0,1,4.24,2.35,8.7,8.7,0,0,1,1.7,2.8A3.3,3.3,0,0,1,418.82,245.27Z" style="fill:#fafafa"></path><path d="M404.08,274.42a1.4,1.4,0,0,1,0,.47,4.76,4.76,0,0,1-.37,1.31,7.09,7.09,0,0,1-7,4,8.29,8.29,0,0,1-3.76-1.31,10.35,10.35,0,0,1-3.12-3.1c-.88-1.29-1.28-2.85-2.2-4.07a3.65,3.65,0,0,0-1.76-1.27,11.41,11.41,0,0,0-2.19-.39,8.36,8.36,0,0,1-6.85-4.36,7.74,7.74,0,0,1-.91-3.35,8.21,8.21,0,0,1,1.32-4.78,6.47,6.47,0,0,1,.85-1.05,1.85,1.85,0,0,1,.36-.31s-.45.47-1,1.47a8.3,8.3,0,0,0-1.12,4.65,7.3,7.3,0,0,0,.92,3.16,8,8,0,0,0,6.52,4.07,10.77,10.77,0,0,1,2.31.4,4.07,4.07,0,0,1,2,1.45c1,1.34,1.39,2.89,2.22,4.1a9.83,9.83,0,0,0,2.95,3,8,8,0,0,0,3.54,1.29,6.62,6.62,0,0,0,3.25-.47,6.86,6.86,0,0,0,3.52-3.16A12.31,12.31,0,0,0,404.08,274.42Z" style="fill:#fafafa"></path><path d="M406.4,298.44a5.09,5.09,0,0,0,.05-1.88,5.2,5.2,0,0,0-3.24-3.69,8.94,8.94,0,0,0-3.48-.53,22,22,0,0,0-4.08.58,27.75,27.75,0,0,1-4.58.73,8.64,8.64,0,0,1-4.9-1.11,9,9,0,0,1-3.09-3.94,14.22,14.22,0,0,0-2.49-3.76,11.92,11.92,0,0,0-6.63-3.56,12.51,12.51,0,0,0-5.15.23c-1.19.31-1.81.62-1.83.57a2,2,0,0,1,.44-.25,10.52,10.52,0,0,1,1.34-.51,12,12,0,0,1,5.26-.4,12.15,12.15,0,0,1,6.92,3.58,14.4,14.4,0,0,1,2.59,3.87,8.58,8.58,0,0,0,2.92,3.73,8.21,8.21,0,0,0,4.6,1,27.83,27.83,0,0,0,4.5-.69,22.44,22.44,0,0,1,4.17-.55,9.14,9.14,0,0,1,3.63.63,5.5,5.5,0,0,1,2.39,1.88,4.88,4.88,0,0,1,.9,2.11,3.59,3.59,0,0,1-.06,1.45A1.33,1.33,0,0,1,406.4,298.44Z" style="fill:#fafafa"></path><path d="M449.3,249.6a10.94,10.94,0,0,1-1.26,2.73,7.09,7.09,0,0,1-1.56,1.84,31.21,31.21,0,0,1-2.9,2.17s-28.91,3.28-33.82,2.87S388.34,242,388.34,242a69,69,0,0,1-13.13,11.24s15.23,13.8,28.62,20.52c8.52,4.28,44-6.39,44.06-6.4a88.93,88.93,0,0,0,9.49-.3c4.41-.56,4.36-1,4.21-1.46-.41-1.35-7.79.7-6.46-.66s9.32-1.45,8.83-2.84c-.64-1.82-8.32.47-9,.61s-.9-.81-.29-.91c.87-.14,10-1.86,9.39-3.65-.34-1-2.06-.22-2.06-.22s-8.42,2.24-8.68,1.39,4.64-2.35,6.32-2.73,2.17-1.33,1.39-1.92c-.53-.41-5.73.64-7.39,1.05s-6.19,1.64-4.45-.78,2.17-4.94,1.81-5.7A.93.93,0,0,0,449.3,249.6Z" style="fill:#b78876"></path><path d="M376.29,193.16a1.6,1.6,0,0,0,2.12.65c.75-.37,1.63-.95,1.76-1.77s.18-1.87.26-2.7a15.64,15.64,0,0,1,.53-2.78c3,.6,5-.23,7-2.52a7.27,7.27,0,0,0,7.74,1.46,5,5,0,0,1,2-.63c1.06,0,2,.93,3,.93a2.23,2.23,0,0,0,2-2.19,3.46,3.46,0,0,0-1.56-2.77,8.08,8.08,0,0,0-3.08-1.15,36,36,0,0,0-11.58-.13,20,20,0,0,0-5.32,1.25,8.55,8.55,0,0,0-4.14,3.45c-1.38,2.43-1.07,5.43-.71,8.21" style="fill:#263238"></path><path d="M411.85,373.48a3.48,3.48,0,0,1-.38-.66l-1-1.93c-.84-1.69-2.11-4.1-3.71-7.06-3.21-5.92-7.89-14-13.39-22.65S382.73,324.74,379,319.11l-4.34-6.7c-.48-.76-.87-1.37-1.16-1.84a4.18,4.18,0,0,1-.37-.66,4,4,0,0,1,.46.61l1.23,1.78,4.49,6.6c3.77,5.59,9,13.3,14.47,22S404,357.68,407.1,363.66c1.56,3,2.78,5.43,3.56,7.14l.91,2A3.55,3.55,0,0,1,411.85,373.48Z" style="fill:#455a64"></path><polygon points="330.73 420.47 347.23 437.86 351.06 435.44 333.49 418.07 330.73 420.47" style="fill:#455a64"></polygon><path d="M389.57,240.22a15.49,15.49,0,0,1-2,2.36c-1.29,1.4-3.14,3.28-5.28,5.24s-4.18,3.64-5.7,4.8a14.91,14.91,0,0,1-2.53,1.76,22.48,22.48,0,0,1,2.3-2c1.45-1.23,3.44-2.94,5.58-4.89s4-3.78,5.37-5.11A21.34,21.34,0,0,1,389.57,240.22Z" style="fill:#263238"></path><path d="M374.07,217.83a3.05,3.05,0,0,1,.95.54,11,11,0,0,1,2.09,2.09c1.53,2,3.38,4.85,5.38,8.06s3.69,6,5,8.25l1.53,2.5a4.63,4.63,0,0,1,.51.95,4.33,4.33,0,0,1-.68-.84c-.41-.56-1-1.38-1.67-2.41-1.37-2.07-3.18-5-5.17-8.18s-3.8-6.11-5.23-8.11A14.37,14.37,0,0,0,374.07,217.83Z" style="fill:#263238"></path><path d="M364.36,233.68c.08,0,.28,1.24.73,3.24a49.14,49.14,0,0,0,2.42,7.61,50.17,50.17,0,0,0,3.66,7.1c1.09,1.74,1.84,2.76,1.78,2.82s-.25-.22-.62-.66-.88-1.11-1.46-2a38.91,38.91,0,0,1-3.84-7.1,39.72,39.72,0,0,1-2.3-7.73c-.18-1-.3-1.85-.34-2.43A2.89,2.89,0,0,1,364.36,233.68Z" style="fill:#263238"></path></g><g id="freepik--Plant--inject-514"><path d="M76.67,288c-5.67.91-8.2,7.87-7.71,13.58s2.85,11.31,2.22,17c-.8,7.24-6.27,13.36-6.91,20.62-.75,8.56,5.3,16.15,7.11,24.55.88,4.09.76,8.41,2.28,12.31a15.38,15.38,0,0,0,29.7-5.31c.13-6.57-3.93-12.76-3.44-19.32.37-4.84,3.21-9.43,2.6-14.25-.72-5.74-6-9.81-7.91-15.28s-.08-11.5-.73-17.25C92.72,294.36,87,287.17,76.67,288" style="fill:#CADBC2"></path><path d="M47.74,337.91c-1,9.55,3.26,20.79,8.17,29A45.55,45.55,0,0,0,77.3,385.51c1,.42,2.24.77,3.08.09a3.1,3.1,0,0,0,.78-2.45,46.9,46.9,0,0,0-33.42-45.24" style="fill:#CADBC2"></path><g style="opacity:0.2"><path d="M47.74,337.91c-1,9.55,3.26,20.79,8.17,29A45.55,45.55,0,0,0,77.3,385.51c1,.42,2.24.77,3.08.09a3.1,3.1,0,0,0,.78-2.45,46.9,46.9,0,0,0-33.42-45.24"></path></g><path d="M89.35,405.48a2.07,2.07,0,0,1-.27-.53c-.18-.41-.41-.93-.68-1.56-.58-1.37-1.43-3.33-2.53-5.74a203.43,203.43,0,0,0-9.48-18.36A205,205,0,0,0,65,362c-1.56-2.13-2.85-3.85-3.76-5l-1-1.36a2.23,2.23,0,0,1-.33-.49s.15.13.41.42.66.78,1.11,1.3c1,1.13,2.3,2.81,3.9,4.92A173.92,173.92,0,0,1,76.86,379a174.32,174.32,0,0,1,9.36,18.48c1,2.44,1.86,4.43,2.37,5.82.24.65.44,1.18.59,1.6A2.34,2.34,0,0,1,89.35,405.48Z" style="fill:#263238"></path><path d="M83.2,314.42a5.29,5.29,0,0,1,.11.92c0,.65.11,1.52.19,2.63l.62,9.68c.51,8.17,1.24,19.46,2.12,31.93s1.74,23.74,2.37,31.91c.31,4,.56,7.33.74,9.67.08,1.1.14,2,.18,2.63a5.32,5.32,0,0,1,0,.92,5.15,5.15,0,0,1-.14-.91c-.07-.65-.16-1.52-.28-2.62l-.91-9.66c-.73-8.16-1.66-19.44-2.54-31.91s-1.54-23.76-2-31.94c-.19-4.05-.35-7.35-.45-9.69,0-1.11-.07-2-.09-2.63A5.48,5.48,0,0,1,83.2,314.42Z" style="fill:#263238"></path><path d="M74.42,391.86H98.34v17.56a11.48,11.48,0,0,1-11.49,11.49h0A11.48,11.48,0,0,1,75.39,410Z" style="fill:#263238"></path></g></svg>