<?xml version="1.0" encoding="UTF-8"?><svg id="a" xmlns="http://www.w3.org/2000/svg" viewBox="0 0 200 200"><defs><style>.b{fill:#bbb;}.c{letter-spacing:.18em;}.d{letter-spacing:.2em;}.e{letter-spacing:.2em;}.f{letter-spacing:.16em;}.g{fill:none;stroke:#efefef;stroke-miterlimit:10;stroke-width:1.67px;}.h{fill:#3db54a;font-size:24px;}.i{font-family:FuturaPT-Heavy, Futura PT;}.j{fill:#ccc;font-size:12px;}.k{letter-spacing:.15em;}</style></defs><text class="i" transform="translate(48.71 132.02)"><tspan class="h"><tspan class="f" x="0" y="0">WA</tspan><tspan class="c" x="47.88" y="0">T</tspan><tspan class="e" x="63.24" y="0">CH</tspan></tspan><tspan class="j"><tspan class="e" x="-2.05" y="18">A CASE STU</tspan><tspan class="k" x="84.31" y="18">D</tspan><tspan class="d" x="94.31" y="18">Y</tspan></tspan></text><rect class="g" width="200" height="200"/><path class="b" d="M111.66,70.19l-17.74-10.79c-1.59-.89-3.6,.25-3.6,2.12v20.97c0,1.85,2,3,3.6,2.12l17.74-10.18c1.65-.92,1.65-3.31,0-4.23Zm13.34,1.81c0-13.81-11.19-25-25-25s-25,11.19-25,25,11.19,25,25,25,25-11.19,25-25Zm-45.16,0c0-11.14,9.02-20.16,20.16-20.16s20.16,9.02,20.16,20.16-9.02,20.16-20.16,20.16-20.16-9.02-20.16-20.16Z"/></svg>